%TF.GenerationSoftware,KiCad,Pcbnew,(5.1.9)-1*%
%TF.CreationDate,2021-03-21T16:42:14+01:00*%
%TF.ProjectId,mid,6d69642e-6b69-4636-9164-5f7063625858,rev?*%
%TF.SameCoordinates,Original*%
%TF.FileFunction,Profile,NP*%
%FSLAX46Y46*%
G04 Gerber Fmt 4.6, Leading zero omitted, Abs format (unit mm)*
G04 Created by KiCad (PCBNEW (5.1.9)-1) date 2021-03-21 16:42:14*
%MOMM*%
%LPD*%
G01*
G04 APERTURE LIST*
%TA.AperFunction,Profile*%
%ADD10C,0.100000*%
%TD*%
G04 APERTURE END LIST*
D10*
X-45466000Y-75057000D02*
X-45466000Y-154432000D01*
X15621000Y-158369000D02*
X46863000Y-158369000D01*
X121158000Y-76073000D02*
X132461000Y-76708000D01*
X-41148000Y-63373000D02*
X-41656000Y-63373000D01*
X-45466000Y-67183000D02*
X-45466000Y-68961000D01*
X218313000Y-63373000D02*
X161163000Y-76073000D01*
X157353000Y-176403000D02*
X142113000Y-176403000D01*
X126873000Y-176403000D02*
X142113000Y-176403000D01*
X-45466000Y-154432000D02*
X-45466000Y-154686000D01*
X304419000Y-158369000D02*
X304673000Y-158369000D01*
X-41656000Y-158496000D02*
G75*
G02*
X-45466000Y-154686000I0J3810000D01*
G01*
X46863000Y-158369000D02*
X126873000Y-176403000D01*
X-22352000Y-63373000D02*
X64008000Y-63373000D01*
X-45466000Y-68961000D02*
X-45466000Y-75057000D01*
X-22352000Y-63373000D02*
X-41148000Y-63373000D01*
X-41656000Y-158496000D02*
X15621000Y-158369000D01*
X308483000Y-154559000D02*
G75*
G02*
X304673000Y-158369000I-3810000J0D01*
G01*
X-45466000Y-67183000D02*
G75*
G02*
X-41656000Y-63373000I3810000J0D01*
G01*
X64008000Y-63373000D02*
X121158000Y-76073000D01*
X308483000Y-154178000D02*
X308483000Y-154559000D01*
X157353000Y-176403000D02*
X237363000Y-158369000D01*
X237363000Y-158369000D02*
X304419000Y-158369000D01*
X161163000Y-76073000D02*
X149860000Y-76708000D01*
X308483000Y-154178000D02*
X308483000Y-67183000D01*
X-44295000Y-59618172D02*
X-45720000Y-57150000D01*
X-49995000Y-163123172D02*
X-48570000Y-165591345D01*
X-45720000Y-62086345D02*
X-44295000Y-59618172D01*
X-48570000Y-62086345D02*
X-45720000Y-62086345D01*
X83856846Y-57047141D02*
X82431846Y-59515313D01*
X-48570000Y-57150000D02*
X-49995000Y-59618172D01*
X149860000Y-62611000D02*
X149860000Y-76708000D01*
X-49995000Y-59618172D02*
X-48570000Y-62086345D01*
X132461000Y-62611000D02*
X149860000Y-62611000D01*
X83387390Y-174747663D02*
X86175110Y-175340211D01*
X-45720000Y-57150000D02*
X-48570000Y-57150000D01*
X86175110Y-175340211D02*
X88082133Y-173222248D01*
X304673000Y-63373000D02*
X218313000Y-63373000D01*
X304673000Y-63373000D02*
G75*
G02*
X308483000Y-67183000I0J-3810000D01*
G01*
X-47283747Y-50517009D02*
X-35405587Y-50515313D01*
X199013860Y-169813177D02*
X196226140Y-170405725D01*
X-60880000Y-168656000D02*
X-60880000Y-55673000D01*
X83856846Y-61983486D02*
X86706846Y-61983486D01*
X200920883Y-171931139D02*
X199013860Y-169813177D01*
X314558162Y-160687141D02*
X311708162Y-160687141D01*
X196226140Y-170405725D02*
X195345441Y-173116236D01*
X310283162Y-61215313D02*
X311708162Y-63683486D01*
X311708162Y-63683486D02*
X314558162Y-63683486D01*
X84413714Y-169919189D02*
X82506691Y-172037152D01*
X82506691Y-172037152D02*
X83387390Y-174747663D01*
X195345441Y-173116236D02*
X197252464Y-175234199D01*
X323833162Y-55515313D02*
X323833162Y-168855313D01*
X88131846Y-59515313D02*
X86706846Y-57047141D01*
X135464411Y-50515313D02*
X147464411Y-50515313D01*
X-55753000Y-50546000D02*
X-47283747Y-50517009D01*
X-55753000Y-50546000D02*
X-55880000Y-50546000D01*
X-44295000Y-163123172D02*
X-45720000Y-160655000D01*
X-55880000Y-173800313D02*
G75*
G02*
X-60880000Y-168800313I0J5000000D01*
G01*
X-60880000Y-168656000D02*
X-60880000Y-168800313D01*
X-45720000Y-165591345D02*
X-44295000Y-163123172D01*
X-48570000Y-165591345D02*
X-45720000Y-165591345D01*
X-60880000Y-55546000D02*
G75*
G02*
X-55880000Y-50546000I5000000J0D01*
G01*
X-45720000Y-160655000D02*
X-48570000Y-160655000D01*
X-48570000Y-160655000D02*
X-49995000Y-163123172D01*
X-47270838Y-173871313D02*
X-55880000Y-173800313D01*
X88082133Y-173222248D02*
X87201434Y-170511737D01*
X314558162Y-63683486D02*
X315983162Y-61215313D01*
X-60880000Y-55546000D02*
X-60880000Y-55673000D01*
X-35405587Y-50515313D02*
X135464411Y-50515313D01*
X132461000Y-76708000D02*
X132461000Y-62611000D01*
X87201434Y-170511737D02*
X84413714Y-169919189D01*
X315983162Y-61215313D02*
X314558162Y-58747141D01*
X318833162Y-50515313D02*
G75*
G02*
X323833162Y-55515313I0J-5000000D01*
G01*
X147464411Y-50515313D02*
X318833162Y-50515313D01*
X86706846Y-57047141D02*
X83856846Y-57047141D01*
X311708162Y-160687141D02*
X310283162Y-163155313D01*
X200983162Y-60015313D02*
X199558162Y-57547141D01*
X195283162Y-60015313D02*
X196708162Y-62483486D01*
X310283162Y-163155313D02*
X311708162Y-165623486D01*
X311708162Y-58747141D02*
X310283162Y-61215313D01*
X314558162Y-58747141D02*
X311708162Y-58747141D01*
X45367991Y-173855313D02*
X-47270838Y-173871313D01*
X196708162Y-62483486D02*
X199558162Y-62483486D01*
X86706846Y-61983486D02*
X88131846Y-59515313D01*
X133147944Y-192513518D02*
X45367991Y-173855313D01*
X200040184Y-174641650D02*
X200920883Y-171931139D01*
X149780879Y-192513518D02*
G75*
G02*
X133147944Y-192513518I-8316467J39125904D01*
G01*
X199558162Y-57547141D02*
X196708162Y-57547141D01*
X196708162Y-57547141D02*
X195283162Y-60015313D01*
X237560833Y-173855313D02*
X149780880Y-192513518D01*
X311708162Y-165623486D02*
X314558162Y-165623486D01*
X197252464Y-175234199D02*
X200040184Y-174641650D01*
X82431846Y-59515313D02*
X83856846Y-61983486D01*
X323833162Y-168855313D02*
G75*
G02*
X318833162Y-173855313I-5000000J0D01*
G01*
X315983162Y-163155313D02*
X314558162Y-160687141D01*
X318833162Y-173855313D02*
X237560833Y-173855313D01*
X314558162Y-165623486D02*
X315983162Y-163155313D01*
X199558162Y-62483486D02*
X200983162Y-60015313D01*
M02*
