M48
; DRILL file {KiCad (5.1.9)-1} date 03/25/21 17:14:15
; FORMAT={-:-/ absolute / inch / decimal}
; #@! TF.CreationDate,2021-03-25T17:14:15+01:00
; #@! TF.GenerationSoftware,Kicad,Pcbnew,(5.1.9)-1
; #@! TF.FileFunction,Plated,1,2,PTH
FMAT,2
INCH
T1C0.0157
T2C0.0236
T3C0.0409
T4C0.0579
%
G90
G05
T1
X2.705Y-8.0535
X3.425Y-8.0264
X4.175Y-8.0085
X4.94Y-7.9906
X5.375Y-5.01
X5.57Y-5.0288
X5.68Y-7.9728
X5.96Y-5.085
X6.135Y-4.89
X6.1357Y-5.1208
X6.17Y-5.09
X6.3264Y-5.0475
X6.425Y-7.9549
X6.5236Y-4.969
X7.3536Y-7.9464
X7.855Y-7.9283
X7.91Y-8.6925
X8.2711Y-7.9184
X8.364Y-7.986
X8.4027Y-7.9994
X8.4424Y-8.0138
X8.5057Y-8.4868
X8.6525Y-8.64
X8.66Y-8.1996
X8.745Y-8.565
X8.815Y-8.5164
X8.89Y-8.08
X8.8942Y-8.1283
X8.953Y-8.187
X9.045Y-8.55
X9.06Y-8.22
X9.0967Y-8.806
X9.1055Y-8.7677
X9.1525Y-8.001
X9.1825Y-8.06
X9.1875Y-7.975
X9.24Y-8.555
X9.2475Y-8.0025
X9.2912Y-8.7747
X9.33Y-8.23
X9.35Y-8.38
X9.395Y-7.2575
X9.4075Y-6.2425
X9.44Y-7.1025
X9.4475Y-7.2397
X9.5175Y-8.44
X9.52Y-7.755
X9.5715Y-6.1878
X9.6925Y-6.9948
X9.7258Y-7.2576
X9.755Y-7.2039
X9.7655Y-7.2419
X9.8008Y-8.3343
X9.865Y-7.19
X9.865Y-7.2294
X10.1639Y-8.0113
X10.1797Y-7.6627
X10.1843Y-7.1435
X10.1975Y-8.0318
X10.2Y-5.4275
X10.21Y-7.6878
X10.22Y-7.16
X10.24Y-5.4325
X10.6512Y-7.21
X10.73Y-7.21
T3
X10.73Y-6.7
X10.83Y-6.7
T4
X0.225Y-5.275
X0.32Y-7.525
X0.32Y-8.275
X0.4119Y-6.025
X0.475Y-5.175
X0.505Y-6.775
X0.57Y-7.425
X0.57Y-8.175
X0.6619Y-5.925
X0.755Y-6.675
X0.975Y-5.275
X1.165Y-7.525
X1.225Y-5.175
X1.255Y-8.275
X1.35Y-6.025
X1.415Y-7.425
X1.505Y-8.175
X1.535Y-6.775
X1.6Y-5.925
X1.725Y-5.275
X1.785Y-6.675
X1.915Y-7.525
X1.975Y-5.175
X2.1Y-6.025
X2.165Y-7.425
X2.19Y-8.275
X2.285Y-6.775
X2.35Y-5.925
X2.44Y-8.175
X2.475Y-5.275
X2.535Y-6.675
X2.665Y-7.525
X2.725Y-5.175
X2.85Y-6.025
X2.915Y-7.425
X3.035Y-6.775
X3.1Y-5.925
X3.225Y-5.275
X3.285Y-6.675
X3.415Y-7.525
X3.475Y-5.175
X3.6Y-6.025
X3.665Y-7.425
X3.785Y-6.775
X3.85Y-5.925
X3.975Y-5.275
X4.035Y-6.675
X4.165Y-7.525
X4.225Y-5.175
X4.35Y-6.025
X4.415Y-7.425
X4.535Y-6.775
X4.6Y-5.925
X4.725Y-5.275
X4.785Y-6.675
X4.915Y-7.525
X4.975Y-5.175
X5.005Y-8.275
X5.1Y-6.025
X5.165Y-7.425
X5.255Y-8.175
X5.285Y-6.775
X5.35Y-5.925
X5.475Y-5.275
X5.535Y-6.675
X5.665Y-7.525
X5.725Y-5.175
X5.85Y-6.025
X5.915Y-7.425
X6.035Y-6.775
X6.1Y-5.925
X6.225Y-5.275
X6.285Y-6.675
X6.415Y-7.525
X6.475Y-5.175
X6.6Y-6.025
X6.665Y-7.425
X6.785Y-6.775
X6.85Y-5.925
X6.975Y-5.275
X7.035Y-6.675
X7.165Y-7.525
X7.225Y-5.175
X7.35Y-6.025
X7.415Y-7.425
X7.535Y-6.775
X7.6Y-5.925
X7.725Y-5.275
X7.785Y-6.675
X7.82Y-8.275
X7.915Y-7.525
X7.975Y-5.175
X8.07Y-8.175
X8.1Y-6.025
X8.165Y-7.425
X8.285Y-6.775
X8.35Y-5.925
X8.475Y-5.275
X8.535Y-6.675
X8.665Y-7.525
X8.725Y-5.175
X8.85Y-6.025
X8.915Y-7.425
X9.035Y-6.775
X9.1Y-5.925
X9.225Y-5.275
X9.285Y-6.675
X9.475Y-5.175
X9.6Y-6.025
X9.785Y-6.775
X9.85Y-5.925
X9.975Y-8.275
X10.035Y-6.675
X10.225Y-8.175
X10.35Y-5.275
X10.6Y-5.175
X10.63Y-6.4
X10.725Y-7.525
X10.725Y-8.275
X10.88Y-6.3
X10.975Y-7.425
X10.975Y-8.175
X11.475Y-8.275
X11.6625Y-5.275
X11.6625Y-6.025
X11.6625Y-6.775
X11.725Y-8.175
X11.9125Y-5.175
X11.9125Y-5.925
X11.9125Y-6.675
T2
G00X5.9549Y-4.7456
M15
G01X5.9549Y-4.7692
M16
G05
G00X5.9549Y-4.9003
M15
G01X5.9549Y-4.9436
M16
G05
G00X6.2951Y-4.7456
M15
G01X6.2951Y-4.7692
M16
G05
G00X6.2951Y-4.9003
M15
G01X6.2951Y-4.9436
M16
G05
T0
M30
