%TF.GenerationSoftware,KiCad,Pcbnew,(5.1.9)-1*%
%TF.CreationDate,2021-03-24T19:16:49+01:00*%
%TF.ProjectId,rabbitholev1,72616262-6974-4686-9f6c-6576312e6b69,rev?*%
%TF.SameCoordinates,Original*%
%TF.FileFunction,Paste,Bot*%
%TF.FilePolarity,Positive*%
%FSLAX46Y46*%
G04 Gerber Fmt 4.6, Leading zero omitted, Abs format (unit mm)*
G04 Created by KiCad (PCBNEW (5.1.9)-1) date 2021-03-24 19:16:49*
%MOMM*%
%LPD*%
G01*
G04 APERTURE LIST*
%ADD10R,1.400000X1.200000*%
%ADD11R,0.600000X1.450000*%
%ADD12R,0.300000X1.450000*%
%ADD13R,0.550000X1.500000*%
%ADD14R,1.500000X0.550000*%
%ADD15R,1.800000X1.100000*%
%ADD16R,1.400000X1.000000*%
%ADD17R,1.200000X0.900000*%
G04 APERTURE END LIST*
D10*
%TO.C,Y1*%
X232580000Y-223671500D03*
X234780000Y-223671500D03*
X234780000Y-221971500D03*
X232580000Y-221971500D03*
%TD*%
D11*
%TO.C,USB1*%
X158800000Y-125932000D03*
X152350000Y-125932000D03*
X158025000Y-125932000D03*
X153125000Y-125932000D03*
D12*
X153825000Y-125932000D03*
X157325000Y-125932000D03*
X154325000Y-125932000D03*
X156825000Y-125932000D03*
X154825000Y-125932000D03*
X156325000Y-125932000D03*
X155825000Y-125932000D03*
X155325000Y-125932000D03*
%TD*%
D13*
%TO.C,U1*%
X237299000Y-207406000D03*
X236499000Y-207406000D03*
X235699000Y-207406000D03*
X234899000Y-207406000D03*
X234099000Y-207406000D03*
X233299000Y-207406000D03*
X232499000Y-207406000D03*
X231699000Y-207406000D03*
X230899000Y-207406000D03*
X230099000Y-207406000D03*
X229299000Y-207406000D03*
D14*
X227599000Y-209106000D03*
X227599000Y-209906000D03*
X227599000Y-210706000D03*
X227599000Y-211506000D03*
X227599000Y-212306000D03*
X227599000Y-213106000D03*
X227599000Y-213906000D03*
X227599000Y-214706000D03*
X227599000Y-215506000D03*
X227599000Y-216306000D03*
X227599000Y-217106000D03*
D13*
X229299000Y-218806000D03*
X230099000Y-218806000D03*
X230899000Y-218806000D03*
X231699000Y-218806000D03*
X232499000Y-218806000D03*
X233299000Y-218806000D03*
X234099000Y-218806000D03*
X234899000Y-218806000D03*
X235699000Y-218806000D03*
X236499000Y-218806000D03*
X237299000Y-218806000D03*
D14*
X238999000Y-217106000D03*
X238999000Y-216306000D03*
X238999000Y-215506000D03*
X238999000Y-214706000D03*
X238999000Y-213906000D03*
X238999000Y-213106000D03*
X238999000Y-212306000D03*
X238999000Y-211506000D03*
X238999000Y-210706000D03*
X238999000Y-209906000D03*
X238999000Y-209106000D03*
%TD*%
D15*
%TO.C,SW1*%
X241329280Y-216214080D03*
X247529280Y-219914080D03*
X241329280Y-219914080D03*
X247529280Y-216214080D03*
%TD*%
%TO.C,R6*%
G36*
G01*
X153943000Y-129355002D02*
X153943000Y-128454998D01*
G75*
G02*
X154192998Y-128205000I249998J0D01*
G01*
X154718002Y-128205000D01*
G75*
G02*
X154968000Y-128454998I0J-249998D01*
G01*
X154968000Y-129355002D01*
G75*
G02*
X154718002Y-129605000I-249998J0D01*
G01*
X154192998Y-129605000D01*
G75*
G02*
X153943000Y-129355002I0J249998D01*
G01*
G37*
G36*
G01*
X152118000Y-129355002D02*
X152118000Y-128454998D01*
G75*
G02*
X152367998Y-128205000I249998J0D01*
G01*
X152893002Y-128205000D01*
G75*
G02*
X153143000Y-128454998I0J-249998D01*
G01*
X153143000Y-129355002D01*
G75*
G02*
X152893002Y-129605000I-249998J0D01*
G01*
X152367998Y-129605000D01*
G75*
G02*
X152118000Y-129355002I0J249998D01*
G01*
G37*
%TD*%
%TO.C,R5*%
G36*
G01*
X158477000Y-128327998D02*
X158477000Y-129228002D01*
G75*
G02*
X158227002Y-129478000I-249998J0D01*
G01*
X157701998Y-129478000D01*
G75*
G02*
X157452000Y-129228002I0J249998D01*
G01*
X157452000Y-128327998D01*
G75*
G02*
X157701998Y-128078000I249998J0D01*
G01*
X158227002Y-128078000D01*
G75*
G02*
X158477000Y-128327998I0J-249998D01*
G01*
G37*
G36*
G01*
X160302000Y-128327998D02*
X160302000Y-129228002D01*
G75*
G02*
X160052002Y-129478000I-249998J0D01*
G01*
X159526998Y-129478000D01*
G75*
G02*
X159277000Y-129228002I0J249998D01*
G01*
X159277000Y-128327998D01*
G75*
G02*
X159526998Y-128078000I249998J0D01*
G01*
X160052002Y-128078000D01*
G75*
G02*
X160302000Y-128327998I0J-249998D01*
G01*
G37*
%TD*%
%TO.C,R4*%
G36*
G01*
X166262000Y-126180002D02*
X166262000Y-125279998D01*
G75*
G02*
X166511998Y-125030000I249998J0D01*
G01*
X167037002Y-125030000D01*
G75*
G02*
X167287000Y-125279998I0J-249998D01*
G01*
X167287000Y-126180002D01*
G75*
G02*
X167037002Y-126430000I-249998J0D01*
G01*
X166511998Y-126430000D01*
G75*
G02*
X166262000Y-126180002I0J249998D01*
G01*
G37*
G36*
G01*
X164437000Y-126180002D02*
X164437000Y-125279998D01*
G75*
G02*
X164686998Y-125030000I249998J0D01*
G01*
X165212002Y-125030000D01*
G75*
G02*
X165462000Y-125279998I0J-249998D01*
G01*
X165462000Y-126180002D01*
G75*
G02*
X165212002Y-126430000I-249998J0D01*
G01*
X164686998Y-126430000D01*
G75*
G02*
X164437000Y-126180002I0J249998D01*
G01*
G37*
%TD*%
%TO.C,R3*%
G36*
G01*
X162729500Y-127196002D02*
X162729500Y-126295998D01*
G75*
G02*
X162979498Y-126046000I249998J0D01*
G01*
X163504502Y-126046000D01*
G75*
G02*
X163754500Y-126295998I0J-249998D01*
G01*
X163754500Y-127196002D01*
G75*
G02*
X163504502Y-127446000I-249998J0D01*
G01*
X162979498Y-127446000D01*
G75*
G02*
X162729500Y-127196002I0J249998D01*
G01*
G37*
G36*
G01*
X160904500Y-127196002D02*
X160904500Y-126295998D01*
G75*
G02*
X161154498Y-126046000I249998J0D01*
G01*
X161679502Y-126046000D01*
G75*
G02*
X161929500Y-126295998I0J-249998D01*
G01*
X161929500Y-127196002D01*
G75*
G02*
X161679502Y-127446000I-249998J0D01*
G01*
X161154498Y-127446000D01*
G75*
G02*
X160904500Y-127196002I0J249998D01*
G01*
G37*
%TD*%
%TO.C,R2*%
G36*
G01*
X224986002Y-205403500D02*
X224085998Y-205403500D01*
G75*
G02*
X223836000Y-205153502I0J249998D01*
G01*
X223836000Y-204628498D01*
G75*
G02*
X224085998Y-204378500I249998J0D01*
G01*
X224986002Y-204378500D01*
G75*
G02*
X225236000Y-204628498I0J-249998D01*
G01*
X225236000Y-205153502D01*
G75*
G02*
X224986002Y-205403500I-249998J0D01*
G01*
G37*
G36*
G01*
X224986002Y-207228500D02*
X224085998Y-207228500D01*
G75*
G02*
X223836000Y-206978502I0J249998D01*
G01*
X223836000Y-206453498D01*
G75*
G02*
X224085998Y-206203500I249998J0D01*
G01*
X224986002Y-206203500D01*
G75*
G02*
X225236000Y-206453498I0J-249998D01*
G01*
X225236000Y-206978502D01*
G75*
G02*
X224986002Y-207228500I-249998J0D01*
G01*
G37*
%TD*%
%TO.C,R1*%
G36*
G01*
X241852500Y-222815998D02*
X241852500Y-223716002D01*
G75*
G02*
X241602502Y-223966000I-249998J0D01*
G01*
X241077498Y-223966000D01*
G75*
G02*
X240827500Y-223716002I0J249998D01*
G01*
X240827500Y-222815998D01*
G75*
G02*
X241077498Y-222566000I249998J0D01*
G01*
X241602502Y-222566000D01*
G75*
G02*
X241852500Y-222815998I0J-249998D01*
G01*
G37*
G36*
G01*
X243677500Y-222815998D02*
X243677500Y-223716002D01*
G75*
G02*
X243427502Y-223966000I-249998J0D01*
G01*
X242902498Y-223966000D01*
G75*
G02*
X242652500Y-223716002I0J249998D01*
G01*
X242652500Y-222815998D01*
G75*
G02*
X242902498Y-222566000I249998J0D01*
G01*
X243427502Y-222566000D01*
G75*
G02*
X243677500Y-222815998I0J-249998D01*
G01*
G37*
%TD*%
D16*
%TO.C,D67*%
X137838000Y-126558000D03*
X137838000Y-128458000D03*
X140038000Y-128458000D03*
D10*
X140038000Y-126738000D03*
%TD*%
D17*
%TO.C,D66*%
X303403000Y-210821000D03*
X303403000Y-214121000D03*
%TD*%
%TO.C,D65*%
X284353000Y-210821000D03*
X284353000Y-214121000D03*
%TD*%
%TO.C,D64*%
X265303000Y-210821000D03*
X265303000Y-214121000D03*
%TD*%
%TO.C,D63*%
X210693000Y-210821000D03*
X210693000Y-214121000D03*
%TD*%
%TO.C,D62*%
X139192000Y-210821000D03*
X139192000Y-214121000D03*
%TD*%
%TO.C,D61*%
X67691000Y-210822000D03*
X67691000Y-214122000D03*
%TD*%
%TO.C,D60*%
X44069000Y-210821000D03*
X44069000Y-214121000D03*
%TD*%
%TO.C,D59*%
X20447000Y-210821000D03*
X20447000Y-214121000D03*
%TD*%
%TO.C,D58*%
X284480000Y-191771000D03*
X284480000Y-195071000D03*
%TD*%
%TO.C,D57*%
X232156000Y-191771000D03*
X232156000Y-195071000D03*
%TD*%
%TO.C,D56*%
X213106000Y-191771000D03*
X213106000Y-195071000D03*
%TD*%
%TO.C,D55*%
X194183000Y-191771000D03*
X194183000Y-195071000D03*
%TD*%
%TO.C,D54*%
X175006000Y-191771000D03*
X175006000Y-195071000D03*
%TD*%
%TO.C,D53*%
X156083000Y-191771000D03*
X156083000Y-195071000D03*
%TD*%
%TO.C,D52*%
X136906000Y-191771000D03*
X136906000Y-195071000D03*
%TD*%
%TO.C,D51*%
X117856000Y-191771000D03*
X117856000Y-195071000D03*
%TD*%
%TO.C,D50*%
X98806000Y-191771000D03*
X98806000Y-195071000D03*
%TD*%
%TO.C,D49*%
X79756000Y-191771000D03*
X79756000Y-195071000D03*
%TD*%
%TO.C,D48*%
X60706000Y-191771000D03*
X60706000Y-195071000D03*
%TD*%
%TO.C,D47*%
X41656000Y-191771000D03*
X41656000Y-195071000D03*
%TD*%
%TO.C,D46*%
X20320000Y-191771000D03*
X20320000Y-195071000D03*
%TD*%
%TO.C,D44*%
X308102000Y-172721000D03*
X308102000Y-176021000D03*
%TD*%
%TO.C,D43*%
X260477000Y-172721000D03*
X260477000Y-176021000D03*
%TD*%
%TO.C,D42*%
X241427000Y-172721000D03*
X241427000Y-176021000D03*
%TD*%
%TO.C,D41*%
X222377000Y-172721000D03*
X222377000Y-176021000D03*
%TD*%
%TO.C,D40*%
X203327000Y-172721000D03*
X203327000Y-176021000D03*
%TD*%
%TO.C,D39*%
X184277000Y-172721000D03*
X184277000Y-176021000D03*
%TD*%
%TO.C,D38*%
X165227000Y-172721000D03*
X165227000Y-176021000D03*
%TD*%
%TO.C,D37*%
X146177000Y-172721000D03*
X146177000Y-176021000D03*
%TD*%
%TO.C,D36*%
X127127000Y-172721000D03*
X127127000Y-176021000D03*
%TD*%
%TO.C,D35*%
X108077000Y-172721000D03*
X108077000Y-176021000D03*
%TD*%
%TO.C,D34*%
X89154000Y-172721000D03*
X89154000Y-176021000D03*
%TD*%
%TO.C,D33*%
X69977000Y-172721000D03*
X69977000Y-176021000D03*
%TD*%
%TO.C,D32*%
X50800000Y-172721000D03*
X50800000Y-176021000D03*
%TD*%
%TO.C,D31*%
X25019000Y-172721000D03*
X25019000Y-176021000D03*
%TD*%
%TO.C,D30*%
X308102000Y-153671000D03*
X308102000Y-156971000D03*
%TD*%
%TO.C,D29*%
X282448000Y-163704000D03*
X282448000Y-167004000D03*
%TD*%
%TO.C,D28*%
X255778000Y-153671000D03*
X255778000Y-156971000D03*
%TD*%
%TO.C,D27*%
X236728000Y-153671000D03*
X236728000Y-156971000D03*
%TD*%
%TO.C,D26*%
X217678000Y-153671000D03*
X217678000Y-156971000D03*
%TD*%
%TO.C,D25*%
X198755000Y-153671000D03*
X198755000Y-156971000D03*
%TD*%
%TO.C,D24*%
X179705000Y-153798000D03*
X179705000Y-157098000D03*
%TD*%
%TO.C,D23*%
X160782000Y-153671000D03*
X160782000Y-156971000D03*
%TD*%
%TO.C,D22*%
X141478000Y-153671000D03*
X141478000Y-156971000D03*
%TD*%
%TO.C,D21*%
X122428000Y-153671000D03*
X122428000Y-156971000D03*
%TD*%
%TO.C,D20*%
X103505000Y-153671000D03*
X103505000Y-156971000D03*
%TD*%
%TO.C,D19*%
X84455000Y-153671000D03*
X84455000Y-156971000D03*
%TD*%
%TO.C,D18*%
X65405000Y-153671000D03*
X65405000Y-156971000D03*
%TD*%
%TO.C,D17*%
X46355000Y-153671000D03*
X46355000Y-156971000D03*
%TD*%
%TO.C,D16*%
X22733000Y-153671000D03*
X22733000Y-156971000D03*
%TD*%
%TO.C,D15*%
X308229000Y-134621000D03*
X308229000Y-137921000D03*
%TD*%
%TO.C,D14*%
X275209000Y-134621000D03*
X275209000Y-137921000D03*
%TD*%
%TO.C,D13*%
X246253000Y-134621000D03*
X246253000Y-137921000D03*
%TD*%
%TO.C,D12*%
X227330000Y-134621000D03*
X227330000Y-137921000D03*
%TD*%
%TO.C,D11*%
X208153000Y-134621000D03*
X208153000Y-137921000D03*
%TD*%
%TO.C,D10*%
X189103000Y-134621000D03*
X189103000Y-137921000D03*
%TD*%
%TO.C,D9*%
X170053000Y-134621000D03*
X170053000Y-137921000D03*
%TD*%
%TO.C,D8*%
X151130000Y-134621000D03*
X151130000Y-137921000D03*
%TD*%
%TO.C,D7*%
X131953000Y-134621000D03*
X131953000Y-137921000D03*
%TD*%
%TO.C,D6*%
X113030000Y-134621000D03*
X113030000Y-137921000D03*
%TD*%
%TO.C,D5*%
X93980000Y-134621000D03*
X93980000Y-137921000D03*
%TD*%
%TO.C,D4*%
X74803000Y-134621000D03*
X74803000Y-137921000D03*
%TD*%
%TO.C,D3*%
X55880000Y-134621000D03*
X55880000Y-137921000D03*
%TD*%
%TO.C,D2*%
X36830000Y-134621000D03*
X36830000Y-137921000D03*
%TD*%
%TO.C,D1*%
X17653000Y-134748000D03*
X17653000Y-138048000D03*
%TD*%
%TO.C,C7*%
G36*
G01*
X219994500Y-221292000D02*
X219044500Y-221292000D01*
G75*
G02*
X218794500Y-221042000I0J250000D01*
G01*
X218794500Y-220542000D01*
G75*
G02*
X219044500Y-220292000I250000J0D01*
G01*
X219994500Y-220292000D01*
G75*
G02*
X220244500Y-220542000I0J-250000D01*
G01*
X220244500Y-221042000D01*
G75*
G02*
X219994500Y-221292000I-250000J0D01*
G01*
G37*
G36*
G01*
X219994500Y-223192000D02*
X219044500Y-223192000D01*
G75*
G02*
X218794500Y-222942000I0J250000D01*
G01*
X218794500Y-222442000D01*
G75*
G02*
X219044500Y-222192000I250000J0D01*
G01*
X219994500Y-222192000D01*
G75*
G02*
X220244500Y-222442000I0J-250000D01*
G01*
X220244500Y-222942000D01*
G75*
G02*
X219994500Y-223192000I-250000J0D01*
G01*
G37*
%TD*%
%TO.C,C6*%
G36*
G01*
X217835500Y-221292000D02*
X216885500Y-221292000D01*
G75*
G02*
X216635500Y-221042000I0J250000D01*
G01*
X216635500Y-220542000D01*
G75*
G02*
X216885500Y-220292000I250000J0D01*
G01*
X217835500Y-220292000D01*
G75*
G02*
X218085500Y-220542000I0J-250000D01*
G01*
X218085500Y-221042000D01*
G75*
G02*
X217835500Y-221292000I-250000J0D01*
G01*
G37*
G36*
G01*
X217835500Y-223192000D02*
X216885500Y-223192000D01*
G75*
G02*
X216635500Y-222942000I0J250000D01*
G01*
X216635500Y-222442000D01*
G75*
G02*
X216885500Y-222192000I250000J0D01*
G01*
X217835500Y-222192000D01*
G75*
G02*
X218085500Y-222442000I0J-250000D01*
G01*
X218085500Y-222942000D01*
G75*
G02*
X217835500Y-223192000I-250000J0D01*
G01*
G37*
%TD*%
%TO.C,C5*%
G36*
G01*
X214383640Y-221281840D02*
X213433640Y-221281840D01*
G75*
G02*
X213183640Y-221031840I0J250000D01*
G01*
X213183640Y-220531840D01*
G75*
G02*
X213433640Y-220281840I250000J0D01*
G01*
X214383640Y-220281840D01*
G75*
G02*
X214633640Y-220531840I0J-250000D01*
G01*
X214633640Y-221031840D01*
G75*
G02*
X214383640Y-221281840I-250000J0D01*
G01*
G37*
G36*
G01*
X214383640Y-223181840D02*
X213433640Y-223181840D01*
G75*
G02*
X213183640Y-222931840I0J250000D01*
G01*
X213183640Y-222431840D01*
G75*
G02*
X213433640Y-222181840I250000J0D01*
G01*
X214383640Y-222181840D01*
G75*
G02*
X214633640Y-222431840I0J-250000D01*
G01*
X214633640Y-222931840D01*
G75*
G02*
X214383640Y-223181840I-250000J0D01*
G01*
G37*
%TD*%
%TO.C,C4*%
G36*
G01*
X210573640Y-221281840D02*
X209623640Y-221281840D01*
G75*
G02*
X209373640Y-221031840I0J250000D01*
G01*
X209373640Y-220531840D01*
G75*
G02*
X209623640Y-220281840I250000J0D01*
G01*
X210573640Y-220281840D01*
G75*
G02*
X210823640Y-220531840I0J-250000D01*
G01*
X210823640Y-221031840D01*
G75*
G02*
X210573640Y-221281840I-250000J0D01*
G01*
G37*
G36*
G01*
X210573640Y-223181840D02*
X209623640Y-223181840D01*
G75*
G02*
X209373640Y-222931840I0J250000D01*
G01*
X209373640Y-222431840D01*
G75*
G02*
X209623640Y-222181840I250000J0D01*
G01*
X210573640Y-222181840D01*
G75*
G02*
X210823640Y-222431840I0J-250000D01*
G01*
X210823640Y-222931840D01*
G75*
G02*
X210573640Y-223181840I-250000J0D01*
G01*
G37*
%TD*%
%TO.C,C3*%
G36*
G01*
X206763640Y-221281840D02*
X205813640Y-221281840D01*
G75*
G02*
X205563640Y-221031840I0J250000D01*
G01*
X205563640Y-220531840D01*
G75*
G02*
X205813640Y-220281840I250000J0D01*
G01*
X206763640Y-220281840D01*
G75*
G02*
X207013640Y-220531840I0J-250000D01*
G01*
X207013640Y-221031840D01*
G75*
G02*
X206763640Y-221281840I-250000J0D01*
G01*
G37*
G36*
G01*
X206763640Y-223181840D02*
X205813640Y-223181840D01*
G75*
G02*
X205563640Y-222931840I0J250000D01*
G01*
X205563640Y-222431840D01*
G75*
G02*
X205813640Y-222181840I250000J0D01*
G01*
X206763640Y-222181840D01*
G75*
G02*
X207013640Y-222431840I0J-250000D01*
G01*
X207013640Y-222931840D01*
G75*
G02*
X206763640Y-223181840I-250000J0D01*
G01*
G37*
%TD*%
%TO.C,C2*%
G36*
G01*
X202953640Y-221281840D02*
X202003640Y-221281840D01*
G75*
G02*
X201753640Y-221031840I0J250000D01*
G01*
X201753640Y-220531840D01*
G75*
G02*
X202003640Y-220281840I250000J0D01*
G01*
X202953640Y-220281840D01*
G75*
G02*
X203203640Y-220531840I0J-250000D01*
G01*
X203203640Y-221031840D01*
G75*
G02*
X202953640Y-221281840I-250000J0D01*
G01*
G37*
G36*
G01*
X202953640Y-223181840D02*
X202003640Y-223181840D01*
G75*
G02*
X201753640Y-222931840I0J250000D01*
G01*
X201753640Y-222431840D01*
G75*
G02*
X202003640Y-222181840I250000J0D01*
G01*
X202953640Y-222181840D01*
G75*
G02*
X203203640Y-222431840I0J-250000D01*
G01*
X203203640Y-222931840D01*
G75*
G02*
X202953640Y-223181840I-250000J0D01*
G01*
G37*
%TD*%
%TO.C,C1*%
G36*
G01*
X244061000Y-212590000D02*
X243111000Y-212590000D01*
G75*
G02*
X242861000Y-212340000I0J250000D01*
G01*
X242861000Y-211840000D01*
G75*
G02*
X243111000Y-211590000I250000J0D01*
G01*
X244061000Y-211590000D01*
G75*
G02*
X244311000Y-211840000I0J-250000D01*
G01*
X244311000Y-212340000D01*
G75*
G02*
X244061000Y-212590000I-250000J0D01*
G01*
G37*
G36*
G01*
X244061000Y-214490000D02*
X243111000Y-214490000D01*
G75*
G02*
X242861000Y-214240000I0J250000D01*
G01*
X242861000Y-213740000D01*
G75*
G02*
X243111000Y-213490000I250000J0D01*
G01*
X244061000Y-213490000D01*
G75*
G02*
X244311000Y-213740000I0J-250000D01*
G01*
X244311000Y-214240000D01*
G75*
G02*
X244061000Y-214490000I-250000J0D01*
G01*
G37*
%TD*%
%TO.C,500m1*%
G36*
G01*
X145402000Y-126883000D02*
X145402000Y-128133000D01*
G75*
G02*
X145152000Y-128383000I-250000J0D01*
G01*
X144402000Y-128383000D01*
G75*
G02*
X144152000Y-128133000I0J250000D01*
G01*
X144152000Y-126883000D01*
G75*
G02*
X144402000Y-126633000I250000J0D01*
G01*
X145152000Y-126633000D01*
G75*
G02*
X145402000Y-126883000I0J-250000D01*
G01*
G37*
G36*
G01*
X148202000Y-126883000D02*
X148202000Y-128133000D01*
G75*
G02*
X147952000Y-128383000I-250000J0D01*
G01*
X147202000Y-128383000D01*
G75*
G02*
X146952000Y-128133000I0J250000D01*
G01*
X146952000Y-126883000D01*
G75*
G02*
X147202000Y-126633000I250000J0D01*
G01*
X147952000Y-126633000D01*
G75*
G02*
X148202000Y-126883000I0J-250000D01*
G01*
G37*
%TD*%
M02*
