%TF.GenerationSoftware,KiCad,Pcbnew,(5.1.9)-1*%
%TF.CreationDate,2021-03-24T19:16:49+01:00*%
%TF.ProjectId,rabbitholev1,72616262-6974-4686-9f6c-6576312e6b69,rev?*%
%TF.SameCoordinates,Original*%
%TF.FileFunction,Soldermask,Bot*%
%TF.FilePolarity,Negative*%
%FSLAX46Y46*%
G04 Gerber Fmt 4.6, Leading zero omitted, Abs format (unit mm)*
G04 Created by KiCad (PCBNEW (5.1.9)-1) date 2021-03-24 19:16:49*
%MOMM*%
%LPD*%
G01*
G04 APERTURE LIST*
%ADD10C,2.250000*%
%ADD11C,3.987800*%
%ADD12C,1.750000*%
%ADD13C,3.048000*%
%ADD14R,1.905000X1.905000*%
%ADD15C,1.905000*%
%ADD16R,1.400000X1.200000*%
%ADD17R,0.600000X1.450000*%
%ADD18R,0.300000X1.450000*%
%ADD19C,0.650000*%
%ADD20R,0.550000X1.500000*%
%ADD21R,1.500000X0.550000*%
%ADD22R,1.800000X1.100000*%
%ADD23R,1.400000X1.000000*%
%ADD24R,1.200000X0.900000*%
G04 APERTURE END LIST*
D10*
%TO.C,MX17*%
X40640000Y-150495000D03*
D11*
X38100000Y-155575000D03*
D10*
X34290000Y-153035000D03*
D12*
X33020000Y-155575000D03*
X43180000Y-155575000D03*
%TD*%
D10*
%TO.C,MX18*%
X59690000Y-150495000D03*
D11*
X57150000Y-155575000D03*
D10*
X53340000Y-153035000D03*
D12*
X52070000Y-155575000D03*
X62230000Y-155575000D03*
%TD*%
D10*
%TO.C,MX16*%
X16811769Y-150495000D03*
D11*
X14271769Y-155575000D03*
D10*
X10461769Y-153035000D03*
D12*
X9191769Y-155575000D03*
X19351769Y-155575000D03*
%TD*%
D10*
%TO.C,MX66*%
X297815000Y-207645000D03*
D11*
X295275000Y-212725000D03*
D10*
X291465000Y-210185000D03*
D12*
X290195000Y-212725000D03*
X300355000Y-212725000D03*
%TD*%
D10*
%TO.C,MX65*%
X278765000Y-207645000D03*
D11*
X276225000Y-212725000D03*
D10*
X272415000Y-210185000D03*
D12*
X271145000Y-212725000D03*
X281305000Y-212725000D03*
%TD*%
D10*
%TO.C,MX64*%
X259715000Y-207645000D03*
D11*
X257175000Y-212725000D03*
D10*
X253365000Y-210185000D03*
D12*
X252095000Y-212725000D03*
X262255000Y-212725000D03*
%TD*%
D10*
%TO.C,MX63*%
X204978000Y-207645000D03*
D11*
X202438000Y-212725000D03*
D10*
X198628000Y-210185000D03*
D12*
X197358000Y-212725000D03*
X207518000Y-212725000D03*
%TD*%
D10*
%TO.C,MX62*%
X133477000Y-207645000D03*
D11*
X130937000Y-212725000D03*
D10*
X127127000Y-210185000D03*
D12*
X125857000Y-212725000D03*
X136017000Y-212725000D03*
D13*
X80937100Y-205740000D03*
X180936900Y-205740000D03*
D11*
X80937100Y-220980000D03*
X180936900Y-220980000D03*
%TD*%
D10*
%TO.C,MX61*%
X61976000Y-207645000D03*
D11*
X59436000Y-212725000D03*
D10*
X55626000Y-210185000D03*
D12*
X54356000Y-212725000D03*
X64516000Y-212725000D03*
%TD*%
D10*
%TO.C,MX60*%
X38227000Y-207645000D03*
D11*
X35687000Y-212725000D03*
D10*
X31877000Y-210185000D03*
D12*
X30607000Y-212725000D03*
X40767000Y-212725000D03*
%TD*%
D10*
%TO.C,MX59*%
X14478000Y-207645000D03*
D11*
X11938000Y-212725000D03*
D10*
X8128000Y-210185000D03*
D12*
X6858000Y-212725000D03*
X17018000Y-212725000D03*
%TD*%
D10*
%TO.C,MX58*%
X278765000Y-188595000D03*
D11*
X276225000Y-193675000D03*
D10*
X272415000Y-191135000D03*
D12*
X271145000Y-193675000D03*
X281305000Y-193675000D03*
%TD*%
D10*
%TO.C,MX57*%
X226441000Y-188595000D03*
D11*
X223901000Y-193675000D03*
D10*
X220091000Y-191135000D03*
D12*
X218821000Y-193675000D03*
X228981000Y-193675000D03*
%TD*%
D10*
%TO.C,MX56*%
X207391000Y-188595000D03*
D11*
X204851000Y-193675000D03*
D10*
X201041000Y-191135000D03*
D12*
X199771000Y-193675000D03*
X209931000Y-193675000D03*
%TD*%
D10*
%TO.C,MX55*%
X188341000Y-188595000D03*
D11*
X185801000Y-193675000D03*
D10*
X181991000Y-191135000D03*
D12*
X180721000Y-193675000D03*
X190881000Y-193675000D03*
%TD*%
D10*
%TO.C,MX54*%
X169291000Y-188595000D03*
D11*
X166751000Y-193675000D03*
D10*
X162941000Y-191135000D03*
D12*
X161671000Y-193675000D03*
X171831000Y-193675000D03*
%TD*%
D10*
%TO.C,MX53*%
X150241000Y-188595000D03*
D11*
X147701000Y-193675000D03*
D10*
X143891000Y-191135000D03*
D12*
X142621000Y-193675000D03*
X152781000Y-193675000D03*
%TD*%
D10*
%TO.C,MX52*%
X131191000Y-188595000D03*
D11*
X128651000Y-193675000D03*
D10*
X124841000Y-191135000D03*
D12*
X123571000Y-193675000D03*
X133731000Y-193675000D03*
%TD*%
D10*
%TO.C,MX51*%
X112141000Y-188595000D03*
D11*
X109601000Y-193675000D03*
D10*
X105791000Y-191135000D03*
D12*
X104521000Y-193675000D03*
X114681000Y-193675000D03*
%TD*%
D10*
%TO.C,MX50*%
X93091000Y-188595000D03*
D11*
X90551000Y-193675000D03*
D10*
X86741000Y-191135000D03*
D12*
X85471000Y-193675000D03*
X95631000Y-193675000D03*
%TD*%
D10*
%TO.C,MX49*%
X74041000Y-188595000D03*
D11*
X71501000Y-193675000D03*
D10*
X67691000Y-191135000D03*
D12*
X66421000Y-193675000D03*
X76581000Y-193675000D03*
%TD*%
D10*
%TO.C,MX48*%
X54991000Y-188595000D03*
D11*
X52451000Y-193675000D03*
D10*
X48641000Y-191135000D03*
D12*
X47371000Y-193675000D03*
X57531000Y-193675000D03*
%TD*%
D10*
%TO.C,MX47*%
X35941000Y-188595000D03*
D11*
X33401000Y-193675000D03*
D10*
X29591000Y-191135000D03*
D12*
X28321000Y-193675000D03*
X38481000Y-193675000D03*
%TD*%
D10*
%TO.C,MX46*%
X14478000Y-188595000D03*
D11*
X11938000Y-193675000D03*
D10*
X8128000Y-191135000D03*
D12*
X6858000Y-193675000D03*
X17018000Y-193675000D03*
%TD*%
D10*
%TO.C,MX44*%
X302577500Y-169545000D03*
D11*
X300037500Y-174625000D03*
D10*
X296227500Y-172085000D03*
D12*
X294957500Y-174625000D03*
X305117500Y-174625000D03*
%TD*%
D10*
%TO.C,MX43*%
X254889000Y-169545000D03*
D11*
X252349000Y-174625000D03*
D10*
X248539000Y-172085000D03*
D12*
X247269000Y-174625000D03*
X257429000Y-174625000D03*
%TD*%
D10*
%TO.C,MX42*%
X235839000Y-169545000D03*
D11*
X233299000Y-174625000D03*
D10*
X229489000Y-172085000D03*
D12*
X228219000Y-174625000D03*
X238379000Y-174625000D03*
%TD*%
D10*
%TO.C,MX41*%
X216789000Y-169545000D03*
D11*
X214249000Y-174625000D03*
D10*
X210439000Y-172085000D03*
D12*
X209169000Y-174625000D03*
X219329000Y-174625000D03*
%TD*%
D10*
%TO.C,MX40*%
X197739000Y-169545000D03*
D11*
X195199000Y-174625000D03*
D10*
X191389000Y-172085000D03*
D12*
X190119000Y-174625000D03*
X200279000Y-174625000D03*
%TD*%
D10*
%TO.C,MX39*%
X178689000Y-169545000D03*
D11*
X176149000Y-174625000D03*
D10*
X172339000Y-172085000D03*
D12*
X171069000Y-174625000D03*
X181229000Y-174625000D03*
%TD*%
D10*
%TO.C,MX38*%
X159639000Y-169545000D03*
D11*
X157099000Y-174625000D03*
D10*
X153289000Y-172085000D03*
D12*
X152019000Y-174625000D03*
X162179000Y-174625000D03*
%TD*%
D10*
%TO.C,MX37*%
X140589000Y-169545000D03*
D11*
X138049000Y-174625000D03*
D10*
X134239000Y-172085000D03*
D12*
X132969000Y-174625000D03*
X143129000Y-174625000D03*
%TD*%
D10*
%TO.C,MX36*%
X121539000Y-169545000D03*
D11*
X118999000Y-174625000D03*
D10*
X115189000Y-172085000D03*
D12*
X113919000Y-174625000D03*
X124079000Y-174625000D03*
%TD*%
D10*
%TO.C,MX35*%
X102489000Y-169545000D03*
D11*
X99949000Y-174625000D03*
D10*
X96139000Y-172085000D03*
D12*
X94869000Y-174625000D03*
X105029000Y-174625000D03*
%TD*%
D10*
%TO.C,MX34*%
X83439000Y-169545000D03*
D11*
X80899000Y-174625000D03*
D10*
X77089000Y-172085000D03*
D12*
X75819000Y-174625000D03*
X85979000Y-174625000D03*
%TD*%
D10*
%TO.C,MX33*%
X64389000Y-169545000D03*
D11*
X61849000Y-174625000D03*
D10*
X58039000Y-172085000D03*
D12*
X56769000Y-174625000D03*
X66929000Y-174625000D03*
%TD*%
D10*
%TO.C,MX32*%
X45339000Y-169545000D03*
D11*
X42799000Y-174625000D03*
D10*
X38989000Y-172085000D03*
D12*
X37719000Y-174625000D03*
X47879000Y-174625000D03*
%TD*%
D10*
%TO.C,MX31*%
X19177000Y-169545000D03*
D11*
X16637000Y-174625000D03*
D10*
X12827000Y-172085000D03*
D12*
X11557000Y-174625000D03*
X21717000Y-174625000D03*
%TD*%
D10*
%TO.C,MX30*%
X302577500Y-150495000D03*
D11*
X300037500Y-155575000D03*
D10*
X296227500Y-153035000D03*
D12*
X294957500Y-155575000D03*
X305117500Y-155575000D03*
%TD*%
D10*
%TO.C,MX28*%
X250190000Y-150495000D03*
D11*
X247650000Y-155575000D03*
D10*
X243840000Y-153035000D03*
D12*
X242570000Y-155575000D03*
X252730000Y-155575000D03*
%TD*%
D10*
%TO.C,MX27*%
X231140000Y-150495000D03*
D11*
X228600000Y-155575000D03*
D10*
X224790000Y-153035000D03*
D12*
X223520000Y-155575000D03*
X233680000Y-155575000D03*
%TD*%
D10*
%TO.C,MX26*%
X212090000Y-150495000D03*
D11*
X209550000Y-155575000D03*
D10*
X205740000Y-153035000D03*
D12*
X204470000Y-155575000D03*
X214630000Y-155575000D03*
%TD*%
D10*
%TO.C,MX25*%
X193040000Y-150495000D03*
D11*
X190500000Y-155575000D03*
D10*
X186690000Y-153035000D03*
D12*
X185420000Y-155575000D03*
X195580000Y-155575000D03*
%TD*%
D10*
%TO.C,MX24*%
X173990000Y-150495000D03*
D11*
X171450000Y-155575000D03*
D10*
X167640000Y-153035000D03*
D12*
X166370000Y-155575000D03*
X176530000Y-155575000D03*
%TD*%
D10*
%TO.C,MX23*%
X154940000Y-150495000D03*
D11*
X152400000Y-155575000D03*
D10*
X148590000Y-153035000D03*
D12*
X147320000Y-155575000D03*
X157480000Y-155575000D03*
%TD*%
D10*
%TO.C,MX22*%
X135890000Y-150495000D03*
D11*
X133350000Y-155575000D03*
D10*
X129540000Y-153035000D03*
D12*
X128270000Y-155575000D03*
X138430000Y-155575000D03*
%TD*%
D10*
%TO.C,MX21*%
X116840000Y-150495000D03*
D11*
X114300000Y-155575000D03*
D10*
X110490000Y-153035000D03*
D12*
X109220000Y-155575000D03*
X119380000Y-155575000D03*
%TD*%
D10*
%TO.C,MX20*%
X97790000Y-150495000D03*
D11*
X95250000Y-155575000D03*
D10*
X91440000Y-153035000D03*
D12*
X90170000Y-155575000D03*
X100330000Y-155575000D03*
%TD*%
D10*
%TO.C,MX19*%
X78740000Y-150495000D03*
D11*
X76200000Y-155575000D03*
D10*
X72390000Y-153035000D03*
D12*
X71120000Y-155575000D03*
X81280000Y-155575000D03*
%TD*%
D10*
%TO.C,MX15*%
X302577500Y-131445000D03*
D11*
X300037500Y-136525000D03*
D10*
X296227500Y-133985000D03*
D12*
X294957500Y-136525000D03*
X305117500Y-136525000D03*
%TD*%
D10*
%TO.C,MX14*%
X269240000Y-131445000D03*
D11*
X266700000Y-136525000D03*
D10*
X262890000Y-133985000D03*
D12*
X261620000Y-136525000D03*
X271780000Y-136525000D03*
D13*
X254793750Y-129540000D03*
X278606250Y-129540000D03*
D11*
X254793750Y-144780000D03*
X278606250Y-144780000D03*
%TD*%
D10*
%TO.C,MX13*%
X240665000Y-131445000D03*
D11*
X238125000Y-136525000D03*
D10*
X234315000Y-133985000D03*
D12*
X233045000Y-136525000D03*
X243205000Y-136525000D03*
%TD*%
D10*
%TO.C,MX12*%
X221615000Y-131445000D03*
D11*
X219075000Y-136525000D03*
D10*
X215265000Y-133985000D03*
D12*
X213995000Y-136525000D03*
X224155000Y-136525000D03*
%TD*%
D10*
%TO.C,MX11*%
X202565000Y-131445000D03*
D11*
X200025000Y-136525000D03*
D10*
X196215000Y-133985000D03*
D12*
X194945000Y-136525000D03*
X205105000Y-136525000D03*
%TD*%
D10*
%TO.C,MX10*%
X183515000Y-131445000D03*
D11*
X180975000Y-136525000D03*
D10*
X177165000Y-133985000D03*
D12*
X175895000Y-136525000D03*
X186055000Y-136525000D03*
%TD*%
D10*
%TO.C,MX9*%
X164465000Y-131445000D03*
D11*
X161925000Y-136525000D03*
D10*
X158115000Y-133985000D03*
D12*
X156845000Y-136525000D03*
X167005000Y-136525000D03*
%TD*%
D10*
%TO.C,MX8*%
X145415000Y-131445000D03*
D11*
X142875000Y-136525000D03*
D10*
X139065000Y-133985000D03*
D12*
X137795000Y-136525000D03*
X147955000Y-136525000D03*
%TD*%
D10*
%TO.C,MX7*%
X126365000Y-131445000D03*
D11*
X123825000Y-136525000D03*
D10*
X120015000Y-133985000D03*
D12*
X118745000Y-136525000D03*
X128905000Y-136525000D03*
%TD*%
D10*
%TO.C,MX6*%
X107315000Y-131445000D03*
D11*
X104775000Y-136525000D03*
D10*
X100965000Y-133985000D03*
D12*
X99695000Y-136525000D03*
X109855000Y-136525000D03*
%TD*%
D10*
%TO.C,MX5*%
X88265000Y-131445000D03*
D11*
X85725000Y-136525000D03*
D10*
X81915000Y-133985000D03*
D12*
X80645000Y-136525000D03*
X90805000Y-136525000D03*
%TD*%
D10*
%TO.C,MX4*%
X69215000Y-131445000D03*
D11*
X66675000Y-136525000D03*
D10*
X62865000Y-133985000D03*
D12*
X61595000Y-136525000D03*
X71755000Y-136525000D03*
%TD*%
D10*
%TO.C,MX3*%
X50165000Y-131445000D03*
D11*
X47625000Y-136525000D03*
D10*
X43815000Y-133985000D03*
D12*
X42545000Y-136525000D03*
X52705000Y-136525000D03*
%TD*%
D10*
%TO.C,MX2*%
X31115000Y-131445000D03*
D11*
X28575000Y-136525000D03*
D10*
X24765000Y-133985000D03*
D12*
X23495000Y-136525000D03*
X33655000Y-136525000D03*
%TD*%
D10*
%TO.C,MX1*%
X12065000Y-131445000D03*
D11*
X9525000Y-136525000D03*
D10*
X5715000Y-133985000D03*
D12*
X4445000Y-136525000D03*
X14605000Y-136525000D03*
%TD*%
D11*
%TO.C,MX29*%
X282067000Y-153162000D03*
X282067000Y-177038000D03*
D13*
X266827000Y-153162000D03*
X266827000Y-177038000D03*
D12*
X278892000Y-165100000D03*
X268732000Y-165100000D03*
D14*
X275082000Y-170180000D03*
D15*
X272542000Y-170180000D03*
D10*
X270002000Y-162560000D03*
D11*
X273812000Y-165100000D03*
D10*
X276352000Y-160020000D03*
%TD*%
D16*
%TO.C,Y1*%
X232580000Y-223671500D03*
X234780000Y-223671500D03*
X234780000Y-221971500D03*
X232580000Y-221971500D03*
%TD*%
D17*
%TO.C,USB1*%
X158800000Y-125932000D03*
X152350000Y-125932000D03*
X158025000Y-125932000D03*
X153125000Y-125932000D03*
D18*
X153825000Y-125932000D03*
X157325000Y-125932000D03*
X154325000Y-125932000D03*
X156825000Y-125932000D03*
X154825000Y-125932000D03*
X156325000Y-125932000D03*
X155825000Y-125932000D03*
X155325000Y-125932000D03*
D19*
X158465000Y-124487000D03*
X152685000Y-124487000D03*
%TD*%
D20*
%TO.C,U1*%
X237299000Y-207406000D03*
X236499000Y-207406000D03*
X235699000Y-207406000D03*
X234899000Y-207406000D03*
X234099000Y-207406000D03*
X233299000Y-207406000D03*
X232499000Y-207406000D03*
X231699000Y-207406000D03*
X230899000Y-207406000D03*
X230099000Y-207406000D03*
X229299000Y-207406000D03*
D21*
X227599000Y-209106000D03*
X227599000Y-209906000D03*
X227599000Y-210706000D03*
X227599000Y-211506000D03*
X227599000Y-212306000D03*
X227599000Y-213106000D03*
X227599000Y-213906000D03*
X227599000Y-214706000D03*
X227599000Y-215506000D03*
X227599000Y-216306000D03*
X227599000Y-217106000D03*
D20*
X229299000Y-218806000D03*
X230099000Y-218806000D03*
X230899000Y-218806000D03*
X231699000Y-218806000D03*
X232499000Y-218806000D03*
X233299000Y-218806000D03*
X234099000Y-218806000D03*
X234899000Y-218806000D03*
X235699000Y-218806000D03*
X236499000Y-218806000D03*
X237299000Y-218806000D03*
D21*
X238999000Y-217106000D03*
X238999000Y-216306000D03*
X238999000Y-215506000D03*
X238999000Y-214706000D03*
X238999000Y-213906000D03*
X238999000Y-213106000D03*
X238999000Y-212306000D03*
X238999000Y-211506000D03*
X238999000Y-210706000D03*
X238999000Y-209906000D03*
X238999000Y-209106000D03*
%TD*%
D22*
%TO.C,SW1*%
X241329280Y-216214080D03*
X247529280Y-219914080D03*
X241329280Y-219914080D03*
X247529280Y-216214080D03*
%TD*%
%TO.C,R6*%
G36*
G01*
X153943000Y-129355002D02*
X153943000Y-128454998D01*
G75*
G02*
X154192998Y-128205000I249998J0D01*
G01*
X154718002Y-128205000D01*
G75*
G02*
X154968000Y-128454998I0J-249998D01*
G01*
X154968000Y-129355002D01*
G75*
G02*
X154718002Y-129605000I-249998J0D01*
G01*
X154192998Y-129605000D01*
G75*
G02*
X153943000Y-129355002I0J249998D01*
G01*
G37*
G36*
G01*
X152118000Y-129355002D02*
X152118000Y-128454998D01*
G75*
G02*
X152367998Y-128205000I249998J0D01*
G01*
X152893002Y-128205000D01*
G75*
G02*
X153143000Y-128454998I0J-249998D01*
G01*
X153143000Y-129355002D01*
G75*
G02*
X152893002Y-129605000I-249998J0D01*
G01*
X152367998Y-129605000D01*
G75*
G02*
X152118000Y-129355002I0J249998D01*
G01*
G37*
%TD*%
%TO.C,R5*%
G36*
G01*
X158477000Y-128327998D02*
X158477000Y-129228002D01*
G75*
G02*
X158227002Y-129478000I-249998J0D01*
G01*
X157701998Y-129478000D01*
G75*
G02*
X157452000Y-129228002I0J249998D01*
G01*
X157452000Y-128327998D01*
G75*
G02*
X157701998Y-128078000I249998J0D01*
G01*
X158227002Y-128078000D01*
G75*
G02*
X158477000Y-128327998I0J-249998D01*
G01*
G37*
G36*
G01*
X160302000Y-128327998D02*
X160302000Y-129228002D01*
G75*
G02*
X160052002Y-129478000I-249998J0D01*
G01*
X159526998Y-129478000D01*
G75*
G02*
X159277000Y-129228002I0J249998D01*
G01*
X159277000Y-128327998D01*
G75*
G02*
X159526998Y-128078000I249998J0D01*
G01*
X160052002Y-128078000D01*
G75*
G02*
X160302000Y-128327998I0J-249998D01*
G01*
G37*
%TD*%
%TO.C,R4*%
G36*
G01*
X166262000Y-126180002D02*
X166262000Y-125279998D01*
G75*
G02*
X166511998Y-125030000I249998J0D01*
G01*
X167037002Y-125030000D01*
G75*
G02*
X167287000Y-125279998I0J-249998D01*
G01*
X167287000Y-126180002D01*
G75*
G02*
X167037002Y-126430000I-249998J0D01*
G01*
X166511998Y-126430000D01*
G75*
G02*
X166262000Y-126180002I0J249998D01*
G01*
G37*
G36*
G01*
X164437000Y-126180002D02*
X164437000Y-125279998D01*
G75*
G02*
X164686998Y-125030000I249998J0D01*
G01*
X165212002Y-125030000D01*
G75*
G02*
X165462000Y-125279998I0J-249998D01*
G01*
X165462000Y-126180002D01*
G75*
G02*
X165212002Y-126430000I-249998J0D01*
G01*
X164686998Y-126430000D01*
G75*
G02*
X164437000Y-126180002I0J249998D01*
G01*
G37*
%TD*%
%TO.C,R3*%
G36*
G01*
X162729500Y-127196002D02*
X162729500Y-126295998D01*
G75*
G02*
X162979498Y-126046000I249998J0D01*
G01*
X163504502Y-126046000D01*
G75*
G02*
X163754500Y-126295998I0J-249998D01*
G01*
X163754500Y-127196002D01*
G75*
G02*
X163504502Y-127446000I-249998J0D01*
G01*
X162979498Y-127446000D01*
G75*
G02*
X162729500Y-127196002I0J249998D01*
G01*
G37*
G36*
G01*
X160904500Y-127196002D02*
X160904500Y-126295998D01*
G75*
G02*
X161154498Y-126046000I249998J0D01*
G01*
X161679502Y-126046000D01*
G75*
G02*
X161929500Y-126295998I0J-249998D01*
G01*
X161929500Y-127196002D01*
G75*
G02*
X161679502Y-127446000I-249998J0D01*
G01*
X161154498Y-127446000D01*
G75*
G02*
X160904500Y-127196002I0J249998D01*
G01*
G37*
%TD*%
%TO.C,R2*%
G36*
G01*
X224986002Y-205403500D02*
X224085998Y-205403500D01*
G75*
G02*
X223836000Y-205153502I0J249998D01*
G01*
X223836000Y-204628498D01*
G75*
G02*
X224085998Y-204378500I249998J0D01*
G01*
X224986002Y-204378500D01*
G75*
G02*
X225236000Y-204628498I0J-249998D01*
G01*
X225236000Y-205153502D01*
G75*
G02*
X224986002Y-205403500I-249998J0D01*
G01*
G37*
G36*
G01*
X224986002Y-207228500D02*
X224085998Y-207228500D01*
G75*
G02*
X223836000Y-206978502I0J249998D01*
G01*
X223836000Y-206453498D01*
G75*
G02*
X224085998Y-206203500I249998J0D01*
G01*
X224986002Y-206203500D01*
G75*
G02*
X225236000Y-206453498I0J-249998D01*
G01*
X225236000Y-206978502D01*
G75*
G02*
X224986002Y-207228500I-249998J0D01*
G01*
G37*
%TD*%
%TO.C,R1*%
G36*
G01*
X241852500Y-222815998D02*
X241852500Y-223716002D01*
G75*
G02*
X241602502Y-223966000I-249998J0D01*
G01*
X241077498Y-223966000D01*
G75*
G02*
X240827500Y-223716002I0J249998D01*
G01*
X240827500Y-222815998D01*
G75*
G02*
X241077498Y-222566000I249998J0D01*
G01*
X241602502Y-222566000D01*
G75*
G02*
X241852500Y-222815998I0J-249998D01*
G01*
G37*
G36*
G01*
X243677500Y-222815998D02*
X243677500Y-223716002D01*
G75*
G02*
X243427502Y-223966000I-249998J0D01*
G01*
X242902498Y-223966000D01*
G75*
G02*
X242652500Y-223716002I0J249998D01*
G01*
X242652500Y-222815998D01*
G75*
G02*
X242902498Y-222566000I249998J0D01*
G01*
X243427502Y-222566000D01*
G75*
G02*
X243677500Y-222815998I0J-249998D01*
G01*
G37*
%TD*%
D23*
%TO.C,D67*%
X137838000Y-126558000D03*
X137838000Y-128458000D03*
X140038000Y-128458000D03*
D16*
X140038000Y-126738000D03*
%TD*%
D24*
%TO.C,D66*%
X303403000Y-210821000D03*
X303403000Y-214121000D03*
%TD*%
%TO.C,D65*%
X284353000Y-210821000D03*
X284353000Y-214121000D03*
%TD*%
%TO.C,D64*%
X265303000Y-210821000D03*
X265303000Y-214121000D03*
%TD*%
%TO.C,D63*%
X210693000Y-210821000D03*
X210693000Y-214121000D03*
%TD*%
%TO.C,D62*%
X139192000Y-210821000D03*
X139192000Y-214121000D03*
%TD*%
%TO.C,D61*%
X67691000Y-210822000D03*
X67691000Y-214122000D03*
%TD*%
%TO.C,D60*%
X44069000Y-210821000D03*
X44069000Y-214121000D03*
%TD*%
%TO.C,D59*%
X20447000Y-210821000D03*
X20447000Y-214121000D03*
%TD*%
%TO.C,D58*%
X284480000Y-191771000D03*
X284480000Y-195071000D03*
%TD*%
%TO.C,D57*%
X232156000Y-191771000D03*
X232156000Y-195071000D03*
%TD*%
%TO.C,D56*%
X213106000Y-191771000D03*
X213106000Y-195071000D03*
%TD*%
%TO.C,D55*%
X194183000Y-191771000D03*
X194183000Y-195071000D03*
%TD*%
%TO.C,D54*%
X175006000Y-191771000D03*
X175006000Y-195071000D03*
%TD*%
%TO.C,D53*%
X156083000Y-191771000D03*
X156083000Y-195071000D03*
%TD*%
%TO.C,D52*%
X136906000Y-191771000D03*
X136906000Y-195071000D03*
%TD*%
%TO.C,D51*%
X117856000Y-191771000D03*
X117856000Y-195071000D03*
%TD*%
%TO.C,D50*%
X98806000Y-191771000D03*
X98806000Y-195071000D03*
%TD*%
%TO.C,D49*%
X79756000Y-191771000D03*
X79756000Y-195071000D03*
%TD*%
%TO.C,D48*%
X60706000Y-191771000D03*
X60706000Y-195071000D03*
%TD*%
%TO.C,D47*%
X41656000Y-191771000D03*
X41656000Y-195071000D03*
%TD*%
%TO.C,D46*%
X20320000Y-191771000D03*
X20320000Y-195071000D03*
%TD*%
%TO.C,D44*%
X308102000Y-172721000D03*
X308102000Y-176021000D03*
%TD*%
%TO.C,D43*%
X260477000Y-172721000D03*
X260477000Y-176021000D03*
%TD*%
%TO.C,D42*%
X241427000Y-172721000D03*
X241427000Y-176021000D03*
%TD*%
%TO.C,D41*%
X222377000Y-172721000D03*
X222377000Y-176021000D03*
%TD*%
%TO.C,D40*%
X203327000Y-172721000D03*
X203327000Y-176021000D03*
%TD*%
%TO.C,D39*%
X184277000Y-172721000D03*
X184277000Y-176021000D03*
%TD*%
%TO.C,D38*%
X165227000Y-172721000D03*
X165227000Y-176021000D03*
%TD*%
%TO.C,D37*%
X146177000Y-172721000D03*
X146177000Y-176021000D03*
%TD*%
%TO.C,D36*%
X127127000Y-172721000D03*
X127127000Y-176021000D03*
%TD*%
%TO.C,D35*%
X108077000Y-172721000D03*
X108077000Y-176021000D03*
%TD*%
%TO.C,D34*%
X89154000Y-172721000D03*
X89154000Y-176021000D03*
%TD*%
%TO.C,D33*%
X69977000Y-172721000D03*
X69977000Y-176021000D03*
%TD*%
%TO.C,D32*%
X50800000Y-172721000D03*
X50800000Y-176021000D03*
%TD*%
%TO.C,D31*%
X25019000Y-172721000D03*
X25019000Y-176021000D03*
%TD*%
%TO.C,D30*%
X308102000Y-153671000D03*
X308102000Y-156971000D03*
%TD*%
%TO.C,D29*%
X282448000Y-163704000D03*
X282448000Y-167004000D03*
%TD*%
%TO.C,D28*%
X255778000Y-153671000D03*
X255778000Y-156971000D03*
%TD*%
%TO.C,D27*%
X236728000Y-153671000D03*
X236728000Y-156971000D03*
%TD*%
%TO.C,D26*%
X217678000Y-153671000D03*
X217678000Y-156971000D03*
%TD*%
%TO.C,D25*%
X198755000Y-153671000D03*
X198755000Y-156971000D03*
%TD*%
%TO.C,D24*%
X179705000Y-153798000D03*
X179705000Y-157098000D03*
%TD*%
%TO.C,D23*%
X160782000Y-153671000D03*
X160782000Y-156971000D03*
%TD*%
%TO.C,D22*%
X141478000Y-153671000D03*
X141478000Y-156971000D03*
%TD*%
%TO.C,D21*%
X122428000Y-153671000D03*
X122428000Y-156971000D03*
%TD*%
%TO.C,D20*%
X103505000Y-153671000D03*
X103505000Y-156971000D03*
%TD*%
%TO.C,D19*%
X84455000Y-153671000D03*
X84455000Y-156971000D03*
%TD*%
%TO.C,D18*%
X65405000Y-153671000D03*
X65405000Y-156971000D03*
%TD*%
%TO.C,D17*%
X46355000Y-153671000D03*
X46355000Y-156971000D03*
%TD*%
%TO.C,D16*%
X22733000Y-153671000D03*
X22733000Y-156971000D03*
%TD*%
%TO.C,D15*%
X308229000Y-134621000D03*
X308229000Y-137921000D03*
%TD*%
%TO.C,D14*%
X275209000Y-134621000D03*
X275209000Y-137921000D03*
%TD*%
%TO.C,D13*%
X246253000Y-134621000D03*
X246253000Y-137921000D03*
%TD*%
%TO.C,D12*%
X227330000Y-134621000D03*
X227330000Y-137921000D03*
%TD*%
%TO.C,D11*%
X208153000Y-134621000D03*
X208153000Y-137921000D03*
%TD*%
%TO.C,D10*%
X189103000Y-134621000D03*
X189103000Y-137921000D03*
%TD*%
%TO.C,D9*%
X170053000Y-134621000D03*
X170053000Y-137921000D03*
%TD*%
%TO.C,D8*%
X151130000Y-134621000D03*
X151130000Y-137921000D03*
%TD*%
%TO.C,D7*%
X131953000Y-134621000D03*
X131953000Y-137921000D03*
%TD*%
%TO.C,D6*%
X113030000Y-134621000D03*
X113030000Y-137921000D03*
%TD*%
%TO.C,D5*%
X93980000Y-134621000D03*
X93980000Y-137921000D03*
%TD*%
%TO.C,D4*%
X74803000Y-134621000D03*
X74803000Y-137921000D03*
%TD*%
%TO.C,D3*%
X55880000Y-134621000D03*
X55880000Y-137921000D03*
%TD*%
%TO.C,D2*%
X36830000Y-134621000D03*
X36830000Y-137921000D03*
%TD*%
%TO.C,D1*%
X17653000Y-134748000D03*
X17653000Y-138048000D03*
%TD*%
%TO.C,C7*%
G36*
G01*
X219994500Y-221292000D02*
X219044500Y-221292000D01*
G75*
G02*
X218794500Y-221042000I0J250000D01*
G01*
X218794500Y-220542000D01*
G75*
G02*
X219044500Y-220292000I250000J0D01*
G01*
X219994500Y-220292000D01*
G75*
G02*
X220244500Y-220542000I0J-250000D01*
G01*
X220244500Y-221042000D01*
G75*
G02*
X219994500Y-221292000I-250000J0D01*
G01*
G37*
G36*
G01*
X219994500Y-223192000D02*
X219044500Y-223192000D01*
G75*
G02*
X218794500Y-222942000I0J250000D01*
G01*
X218794500Y-222442000D01*
G75*
G02*
X219044500Y-222192000I250000J0D01*
G01*
X219994500Y-222192000D01*
G75*
G02*
X220244500Y-222442000I0J-250000D01*
G01*
X220244500Y-222942000D01*
G75*
G02*
X219994500Y-223192000I-250000J0D01*
G01*
G37*
%TD*%
%TO.C,C6*%
G36*
G01*
X217835500Y-221292000D02*
X216885500Y-221292000D01*
G75*
G02*
X216635500Y-221042000I0J250000D01*
G01*
X216635500Y-220542000D01*
G75*
G02*
X216885500Y-220292000I250000J0D01*
G01*
X217835500Y-220292000D01*
G75*
G02*
X218085500Y-220542000I0J-250000D01*
G01*
X218085500Y-221042000D01*
G75*
G02*
X217835500Y-221292000I-250000J0D01*
G01*
G37*
G36*
G01*
X217835500Y-223192000D02*
X216885500Y-223192000D01*
G75*
G02*
X216635500Y-222942000I0J250000D01*
G01*
X216635500Y-222442000D01*
G75*
G02*
X216885500Y-222192000I250000J0D01*
G01*
X217835500Y-222192000D01*
G75*
G02*
X218085500Y-222442000I0J-250000D01*
G01*
X218085500Y-222942000D01*
G75*
G02*
X217835500Y-223192000I-250000J0D01*
G01*
G37*
%TD*%
%TO.C,C5*%
G36*
G01*
X214383640Y-221281840D02*
X213433640Y-221281840D01*
G75*
G02*
X213183640Y-221031840I0J250000D01*
G01*
X213183640Y-220531840D01*
G75*
G02*
X213433640Y-220281840I250000J0D01*
G01*
X214383640Y-220281840D01*
G75*
G02*
X214633640Y-220531840I0J-250000D01*
G01*
X214633640Y-221031840D01*
G75*
G02*
X214383640Y-221281840I-250000J0D01*
G01*
G37*
G36*
G01*
X214383640Y-223181840D02*
X213433640Y-223181840D01*
G75*
G02*
X213183640Y-222931840I0J250000D01*
G01*
X213183640Y-222431840D01*
G75*
G02*
X213433640Y-222181840I250000J0D01*
G01*
X214383640Y-222181840D01*
G75*
G02*
X214633640Y-222431840I0J-250000D01*
G01*
X214633640Y-222931840D01*
G75*
G02*
X214383640Y-223181840I-250000J0D01*
G01*
G37*
%TD*%
%TO.C,C4*%
G36*
G01*
X210573640Y-221281840D02*
X209623640Y-221281840D01*
G75*
G02*
X209373640Y-221031840I0J250000D01*
G01*
X209373640Y-220531840D01*
G75*
G02*
X209623640Y-220281840I250000J0D01*
G01*
X210573640Y-220281840D01*
G75*
G02*
X210823640Y-220531840I0J-250000D01*
G01*
X210823640Y-221031840D01*
G75*
G02*
X210573640Y-221281840I-250000J0D01*
G01*
G37*
G36*
G01*
X210573640Y-223181840D02*
X209623640Y-223181840D01*
G75*
G02*
X209373640Y-222931840I0J250000D01*
G01*
X209373640Y-222431840D01*
G75*
G02*
X209623640Y-222181840I250000J0D01*
G01*
X210573640Y-222181840D01*
G75*
G02*
X210823640Y-222431840I0J-250000D01*
G01*
X210823640Y-222931840D01*
G75*
G02*
X210573640Y-223181840I-250000J0D01*
G01*
G37*
%TD*%
%TO.C,C3*%
G36*
G01*
X206763640Y-221281840D02*
X205813640Y-221281840D01*
G75*
G02*
X205563640Y-221031840I0J250000D01*
G01*
X205563640Y-220531840D01*
G75*
G02*
X205813640Y-220281840I250000J0D01*
G01*
X206763640Y-220281840D01*
G75*
G02*
X207013640Y-220531840I0J-250000D01*
G01*
X207013640Y-221031840D01*
G75*
G02*
X206763640Y-221281840I-250000J0D01*
G01*
G37*
G36*
G01*
X206763640Y-223181840D02*
X205813640Y-223181840D01*
G75*
G02*
X205563640Y-222931840I0J250000D01*
G01*
X205563640Y-222431840D01*
G75*
G02*
X205813640Y-222181840I250000J0D01*
G01*
X206763640Y-222181840D01*
G75*
G02*
X207013640Y-222431840I0J-250000D01*
G01*
X207013640Y-222931840D01*
G75*
G02*
X206763640Y-223181840I-250000J0D01*
G01*
G37*
%TD*%
%TO.C,C2*%
G36*
G01*
X202953640Y-221281840D02*
X202003640Y-221281840D01*
G75*
G02*
X201753640Y-221031840I0J250000D01*
G01*
X201753640Y-220531840D01*
G75*
G02*
X202003640Y-220281840I250000J0D01*
G01*
X202953640Y-220281840D01*
G75*
G02*
X203203640Y-220531840I0J-250000D01*
G01*
X203203640Y-221031840D01*
G75*
G02*
X202953640Y-221281840I-250000J0D01*
G01*
G37*
G36*
G01*
X202953640Y-223181840D02*
X202003640Y-223181840D01*
G75*
G02*
X201753640Y-222931840I0J250000D01*
G01*
X201753640Y-222431840D01*
G75*
G02*
X202003640Y-222181840I250000J0D01*
G01*
X202953640Y-222181840D01*
G75*
G02*
X203203640Y-222431840I0J-250000D01*
G01*
X203203640Y-222931840D01*
G75*
G02*
X202953640Y-223181840I-250000J0D01*
G01*
G37*
%TD*%
%TO.C,C1*%
G36*
G01*
X244061000Y-212590000D02*
X243111000Y-212590000D01*
G75*
G02*
X242861000Y-212340000I0J250000D01*
G01*
X242861000Y-211840000D01*
G75*
G02*
X243111000Y-211590000I250000J0D01*
G01*
X244061000Y-211590000D01*
G75*
G02*
X244311000Y-211840000I0J-250000D01*
G01*
X244311000Y-212340000D01*
G75*
G02*
X244061000Y-212590000I-250000J0D01*
G01*
G37*
G36*
G01*
X244061000Y-214490000D02*
X243111000Y-214490000D01*
G75*
G02*
X242861000Y-214240000I0J250000D01*
G01*
X242861000Y-213740000D01*
G75*
G02*
X243111000Y-213490000I250000J0D01*
G01*
X244061000Y-213490000D01*
G75*
G02*
X244311000Y-213740000I0J-250000D01*
G01*
X244311000Y-214240000D01*
G75*
G02*
X244061000Y-214490000I-250000J0D01*
G01*
G37*
%TD*%
%TO.C,500m1*%
G36*
G01*
X145402000Y-126883000D02*
X145402000Y-128133000D01*
G75*
G02*
X145152000Y-128383000I-250000J0D01*
G01*
X144402000Y-128383000D01*
G75*
G02*
X144152000Y-128133000I0J250000D01*
G01*
X144152000Y-126883000D01*
G75*
G02*
X144402000Y-126633000I250000J0D01*
G01*
X145152000Y-126633000D01*
G75*
G02*
X145402000Y-126883000I0J-250000D01*
G01*
G37*
G36*
G01*
X148202000Y-126883000D02*
X148202000Y-128133000D01*
G75*
G02*
X147952000Y-128383000I-250000J0D01*
G01*
X147202000Y-128383000D01*
G75*
G02*
X146952000Y-128133000I0J250000D01*
G01*
X146952000Y-126883000D01*
G75*
G02*
X147202000Y-126633000I250000J0D01*
G01*
X147952000Y-126633000D01*
G75*
G02*
X148202000Y-126883000I0J-250000D01*
G01*
G37*
%TD*%
M02*
