G04 #@! TF.GenerationSoftware,KiCad,Pcbnew,(5.1.9)-1*
G04 #@! TF.CreationDate,2021-03-25T17:13:51+01:00*
G04 #@! TF.ProjectId,rabbitholev1,72616262-6974-4686-9f6c-6576312e6b69,rev?*
G04 #@! TF.SameCoordinates,Original*
G04 #@! TF.FileFunction,Soldermask,Top*
G04 #@! TF.FilePolarity,Negative*
%FSLAX46Y46*%
G04 Gerber Fmt 4.6, Leading zero omitted, Abs format (unit mm)*
G04 Created by KiCad (PCBNEW (5.1.9)-1) date 2021-03-25 17:13:51*
%MOMM*%
%LPD*%
G01*
G04 APERTURE LIST*
%ADD10C,3.987800*%
%ADD11C,1.750000*%
%ADD12C,3.048000*%
%ADD13C,0.650000*%
%ADD14O,1.000000X2.100000*%
%ADD15O,1.000000X1.600000*%
G04 APERTURE END LIST*
D10*
G04 #@! TO.C,MX17*
X38100000Y-155575000D03*
D11*
X33020000Y-155575000D03*
X43180000Y-155575000D03*
G04 #@! TD*
D10*
G04 #@! TO.C,MX18*
X57150000Y-155575000D03*
D11*
X52070000Y-155575000D03*
X62230000Y-155575000D03*
G04 #@! TD*
D10*
G04 #@! TO.C,MX16*
X14271769Y-155575000D03*
D11*
X9191769Y-155575000D03*
X19351769Y-155575000D03*
G04 #@! TD*
D10*
G04 #@! TO.C,MX66*
X295275000Y-212725000D03*
D11*
X290195000Y-212725000D03*
X300355000Y-212725000D03*
G04 #@! TD*
D10*
G04 #@! TO.C,MX65*
X276225000Y-212725000D03*
D11*
X271145000Y-212725000D03*
X281305000Y-212725000D03*
G04 #@! TD*
D10*
G04 #@! TO.C,MX64*
X257175000Y-212725000D03*
D11*
X252095000Y-212725000D03*
X262255000Y-212725000D03*
G04 #@! TD*
D10*
G04 #@! TO.C,MX63*
X202438000Y-212725000D03*
D11*
X197358000Y-212725000D03*
X207518000Y-212725000D03*
G04 #@! TD*
D10*
G04 #@! TO.C,MX62*
X130937000Y-212725000D03*
D11*
X125857000Y-212725000D03*
X136017000Y-212725000D03*
D12*
X80937100Y-205740000D03*
X180936900Y-205740000D03*
D10*
X80937100Y-220980000D03*
X180936900Y-220980000D03*
G04 #@! TD*
G04 #@! TO.C,MX61*
X59436000Y-212725000D03*
D11*
X54356000Y-212725000D03*
X64516000Y-212725000D03*
G04 #@! TD*
D10*
G04 #@! TO.C,MX60*
X35687000Y-212725000D03*
D11*
X30607000Y-212725000D03*
X40767000Y-212725000D03*
G04 #@! TD*
D10*
G04 #@! TO.C,MX59*
X11938000Y-212725000D03*
D11*
X6858000Y-212725000D03*
X17018000Y-212725000D03*
G04 #@! TD*
D10*
G04 #@! TO.C,MX58*
X276225000Y-193675000D03*
D11*
X271145000Y-193675000D03*
X281305000Y-193675000D03*
G04 #@! TD*
D10*
G04 #@! TO.C,MX57*
X223901000Y-193675000D03*
D11*
X218821000Y-193675000D03*
X228981000Y-193675000D03*
G04 #@! TD*
D10*
G04 #@! TO.C,MX56*
X204851000Y-193675000D03*
D11*
X199771000Y-193675000D03*
X209931000Y-193675000D03*
G04 #@! TD*
D10*
G04 #@! TO.C,MX55*
X185801000Y-193675000D03*
D11*
X180721000Y-193675000D03*
X190881000Y-193675000D03*
G04 #@! TD*
D10*
G04 #@! TO.C,MX54*
X166751000Y-193675000D03*
D11*
X161671000Y-193675000D03*
X171831000Y-193675000D03*
G04 #@! TD*
D10*
G04 #@! TO.C,MX53*
X147701000Y-193675000D03*
D11*
X142621000Y-193675000D03*
X152781000Y-193675000D03*
G04 #@! TD*
D10*
G04 #@! TO.C,MX52*
X128651000Y-193675000D03*
D11*
X123571000Y-193675000D03*
X133731000Y-193675000D03*
G04 #@! TD*
D10*
G04 #@! TO.C,MX51*
X109601000Y-193675000D03*
D11*
X104521000Y-193675000D03*
X114681000Y-193675000D03*
G04 #@! TD*
D10*
G04 #@! TO.C,MX50*
X90551000Y-193675000D03*
D11*
X85471000Y-193675000D03*
X95631000Y-193675000D03*
G04 #@! TD*
D10*
G04 #@! TO.C,MX49*
X71501000Y-193675000D03*
D11*
X66421000Y-193675000D03*
X76581000Y-193675000D03*
G04 #@! TD*
D10*
G04 #@! TO.C,MX48*
X52451000Y-193675000D03*
D11*
X47371000Y-193675000D03*
X57531000Y-193675000D03*
G04 #@! TD*
D10*
G04 #@! TO.C,MX47*
X33401000Y-193675000D03*
D11*
X28321000Y-193675000D03*
X38481000Y-193675000D03*
G04 #@! TD*
D10*
G04 #@! TO.C,MX46*
X11938000Y-193675000D03*
D11*
X6858000Y-193675000D03*
X17018000Y-193675000D03*
G04 #@! TD*
D10*
G04 #@! TO.C,MX44*
X300037500Y-174625000D03*
D11*
X294957500Y-174625000D03*
X305117500Y-174625000D03*
G04 #@! TD*
D10*
G04 #@! TO.C,MX43*
X252349000Y-174625000D03*
D11*
X247269000Y-174625000D03*
X257429000Y-174625000D03*
G04 #@! TD*
D10*
G04 #@! TO.C,MX42*
X233299000Y-174625000D03*
D11*
X228219000Y-174625000D03*
X238379000Y-174625000D03*
G04 #@! TD*
D10*
G04 #@! TO.C,MX41*
X214249000Y-174625000D03*
D11*
X209169000Y-174625000D03*
X219329000Y-174625000D03*
G04 #@! TD*
D10*
G04 #@! TO.C,MX40*
X195199000Y-174625000D03*
D11*
X190119000Y-174625000D03*
X200279000Y-174625000D03*
G04 #@! TD*
D10*
G04 #@! TO.C,MX39*
X176149000Y-174625000D03*
D11*
X171069000Y-174625000D03*
X181229000Y-174625000D03*
G04 #@! TD*
D10*
G04 #@! TO.C,MX38*
X157099000Y-174625000D03*
D11*
X152019000Y-174625000D03*
X162179000Y-174625000D03*
G04 #@! TD*
D10*
G04 #@! TO.C,MX37*
X138049000Y-174625000D03*
D11*
X132969000Y-174625000D03*
X143129000Y-174625000D03*
G04 #@! TD*
D10*
G04 #@! TO.C,MX36*
X118999000Y-174625000D03*
D11*
X113919000Y-174625000D03*
X124079000Y-174625000D03*
G04 #@! TD*
D10*
G04 #@! TO.C,MX35*
X99949000Y-174625000D03*
D11*
X94869000Y-174625000D03*
X105029000Y-174625000D03*
G04 #@! TD*
D10*
G04 #@! TO.C,MX34*
X80899000Y-174625000D03*
D11*
X75819000Y-174625000D03*
X85979000Y-174625000D03*
G04 #@! TD*
D10*
G04 #@! TO.C,MX33*
X61849000Y-174625000D03*
D11*
X56769000Y-174625000D03*
X66929000Y-174625000D03*
G04 #@! TD*
D10*
G04 #@! TO.C,MX32*
X42799000Y-174625000D03*
D11*
X37719000Y-174625000D03*
X47879000Y-174625000D03*
G04 #@! TD*
D10*
G04 #@! TO.C,MX31*
X16637000Y-174625000D03*
D11*
X11557000Y-174625000D03*
X21717000Y-174625000D03*
G04 #@! TD*
D10*
G04 #@! TO.C,MX30*
X300037500Y-155575000D03*
D11*
X294957500Y-155575000D03*
X305117500Y-155575000D03*
G04 #@! TD*
D10*
G04 #@! TO.C,MX28*
X247650000Y-155575000D03*
D11*
X242570000Y-155575000D03*
X252730000Y-155575000D03*
G04 #@! TD*
D10*
G04 #@! TO.C,MX27*
X228600000Y-155575000D03*
D11*
X223520000Y-155575000D03*
X233680000Y-155575000D03*
G04 #@! TD*
D10*
G04 #@! TO.C,MX26*
X209550000Y-155575000D03*
D11*
X204470000Y-155575000D03*
X214630000Y-155575000D03*
G04 #@! TD*
D10*
G04 #@! TO.C,MX25*
X190500000Y-155575000D03*
D11*
X185420000Y-155575000D03*
X195580000Y-155575000D03*
G04 #@! TD*
D10*
G04 #@! TO.C,MX24*
X171450000Y-155575000D03*
D11*
X166370000Y-155575000D03*
X176530000Y-155575000D03*
G04 #@! TD*
D10*
G04 #@! TO.C,MX23*
X152400000Y-155575000D03*
D11*
X147320000Y-155575000D03*
X157480000Y-155575000D03*
G04 #@! TD*
D10*
G04 #@! TO.C,MX22*
X133350000Y-155575000D03*
D11*
X128270000Y-155575000D03*
X138430000Y-155575000D03*
G04 #@! TD*
D10*
G04 #@! TO.C,MX21*
X114300000Y-155575000D03*
D11*
X109220000Y-155575000D03*
X119380000Y-155575000D03*
G04 #@! TD*
D10*
G04 #@! TO.C,MX20*
X95250000Y-155575000D03*
D11*
X90170000Y-155575000D03*
X100330000Y-155575000D03*
G04 #@! TD*
D10*
G04 #@! TO.C,MX19*
X76200000Y-155575000D03*
D11*
X71120000Y-155575000D03*
X81280000Y-155575000D03*
G04 #@! TD*
D10*
G04 #@! TO.C,MX15*
X300037500Y-136525000D03*
D11*
X294957500Y-136525000D03*
X305117500Y-136525000D03*
G04 #@! TD*
D10*
G04 #@! TO.C,MX14*
X266700000Y-136525000D03*
D11*
X261620000Y-136525000D03*
X271780000Y-136525000D03*
D12*
X254793750Y-129540000D03*
X278606250Y-129540000D03*
D10*
X254793750Y-144780000D03*
X278606250Y-144780000D03*
G04 #@! TD*
G04 #@! TO.C,MX13*
X238125000Y-136525000D03*
D11*
X233045000Y-136525000D03*
X243205000Y-136525000D03*
G04 #@! TD*
D10*
G04 #@! TO.C,MX12*
X219075000Y-136525000D03*
D11*
X213995000Y-136525000D03*
X224155000Y-136525000D03*
G04 #@! TD*
D10*
G04 #@! TO.C,MX11*
X200025000Y-136525000D03*
D11*
X194945000Y-136525000D03*
X205105000Y-136525000D03*
G04 #@! TD*
D10*
G04 #@! TO.C,MX10*
X180975000Y-136525000D03*
D11*
X175895000Y-136525000D03*
X186055000Y-136525000D03*
G04 #@! TD*
D10*
G04 #@! TO.C,MX9*
X161925000Y-136525000D03*
D11*
X156845000Y-136525000D03*
X167005000Y-136525000D03*
G04 #@! TD*
D10*
G04 #@! TO.C,MX8*
X142875000Y-136525000D03*
D11*
X137795000Y-136525000D03*
X147955000Y-136525000D03*
G04 #@! TD*
D10*
G04 #@! TO.C,MX7*
X123825000Y-136525000D03*
D11*
X118745000Y-136525000D03*
X128905000Y-136525000D03*
G04 #@! TD*
D10*
G04 #@! TO.C,MX6*
X104775000Y-136525000D03*
D11*
X99695000Y-136525000D03*
X109855000Y-136525000D03*
G04 #@! TD*
D10*
G04 #@! TO.C,MX5*
X85725000Y-136525000D03*
D11*
X80645000Y-136525000D03*
X90805000Y-136525000D03*
G04 #@! TD*
D10*
G04 #@! TO.C,MX4*
X66675000Y-136525000D03*
D11*
X61595000Y-136525000D03*
X71755000Y-136525000D03*
G04 #@! TD*
D10*
G04 #@! TO.C,MX3*
X47625000Y-136525000D03*
D11*
X42545000Y-136525000D03*
X52705000Y-136525000D03*
G04 #@! TD*
D10*
G04 #@! TO.C,MX2*
X28575000Y-136525000D03*
D11*
X23495000Y-136525000D03*
X33655000Y-136525000D03*
G04 #@! TD*
D10*
G04 #@! TO.C,MX1*
X9525000Y-136525000D03*
D11*
X4445000Y-136525000D03*
X14605000Y-136525000D03*
G04 #@! TD*
D10*
G04 #@! TO.C,MX29*
X282067000Y-153162000D03*
X282067000Y-177038000D03*
D12*
X266827000Y-153162000D03*
X266827000Y-177038000D03*
D11*
X278892000Y-165100000D03*
X268732000Y-165100000D03*
D10*
X273812000Y-165100000D03*
G04 #@! TD*
D13*
G04 #@! TO.C,USB1*
X158465000Y-124487000D03*
X152685000Y-124487000D03*
D14*
X151255000Y-125017000D03*
X159895000Y-125017000D03*
D15*
X151255000Y-120837000D03*
X159895000Y-120837000D03*
G04 #@! TD*
M02*
