M48
; DRILL file {KiCad (5.1.9)-1} date 03/25/21 17:14:15
; FORMAT={-:-/ absolute / inch / decimal}
; #@! TF.CreationDate,2021-03-25T17:14:15+01:00
; #@! TF.GenerationSoftware,Kicad,Pcbnew,(5.1.9)-1
; #@! TF.FileFunction,NonPlated,1,2,NPTH
FMAT,2
INCH
T1C0.0256
T2C0.0689
T3C0.1200
T4C0.1570
%
G90
G05
T1
X6.0112Y-4.9011
X6.2388Y-4.9011
T2
X0.175Y-5.375
X0.27Y-7.625
X0.27Y-8.375
X0.3619Y-6.125
X0.455Y-6.875
X0.575Y-5.375
X0.67Y-7.625
X0.67Y-8.375
X0.7619Y-6.125
X0.855Y-6.875
X0.925Y-5.375
X1.115Y-7.625
X1.205Y-8.375
X1.3Y-6.125
X1.325Y-5.375
X1.485Y-6.875
X1.515Y-7.625
X1.605Y-8.375
X1.675Y-5.375
X1.7Y-6.125
X1.865Y-7.625
X1.885Y-6.875
X2.05Y-6.125
X2.075Y-5.375
X2.14Y-8.375
X2.235Y-6.875
X2.265Y-7.625
X2.425Y-5.375
X2.45Y-6.125
X2.54Y-8.375
X2.615Y-7.625
X2.635Y-6.875
X2.8Y-6.125
X2.825Y-5.375
X2.985Y-6.875
X3.015Y-7.625
X3.175Y-5.375
X3.2Y-6.125
X3.365Y-7.625
X3.385Y-6.875
X3.55Y-6.125
X3.575Y-5.375
X3.735Y-6.875
X3.765Y-7.625
X3.925Y-5.375
X3.95Y-6.125
X4.115Y-7.625
X4.135Y-6.875
X4.3Y-6.125
X4.325Y-5.375
X4.485Y-6.875
X4.515Y-7.625
X4.675Y-5.375
X4.7Y-6.125
X4.865Y-7.625
X4.885Y-6.875
X4.955Y-8.375
X5.05Y-6.125
X5.075Y-5.375
X5.235Y-6.875
X5.265Y-7.625
X5.355Y-8.375
X5.425Y-5.375
X5.45Y-6.125
X5.615Y-7.625
X5.635Y-6.875
X5.8Y-6.125
X5.825Y-5.375
X5.985Y-6.875
X6.015Y-7.625
X6.175Y-5.375
X6.2Y-6.125
X6.365Y-7.625
X6.385Y-6.875
X6.55Y-6.125
X6.575Y-5.375
X6.735Y-6.875
X6.765Y-7.625
X6.925Y-5.375
X6.95Y-6.125
X7.115Y-7.625
X7.135Y-6.875
X7.3Y-6.125
X7.325Y-5.375
X7.485Y-6.875
X7.515Y-7.625
X7.675Y-5.375
X7.7Y-6.125
X7.77Y-8.375
X7.865Y-7.625
X7.885Y-6.875
X8.05Y-6.125
X8.075Y-5.375
X8.17Y-8.375
X8.235Y-6.875
X8.265Y-7.625
X8.425Y-5.375
X8.45Y-6.125
X8.615Y-7.625
X8.635Y-6.875
X8.8Y-6.125
X8.825Y-5.375
X8.985Y-6.875
X9.015Y-7.625
X9.175Y-5.375
X9.2Y-6.125
X9.385Y-6.875
X9.55Y-6.125
X9.575Y-5.375
X9.735Y-6.875
X9.925Y-8.375
X9.95Y-6.125
X10.135Y-6.875
X10.3Y-5.375
X10.325Y-8.375
X10.58Y-6.5
X10.675Y-7.625
X10.675Y-8.375
X10.7Y-5.375
X10.98Y-6.5
X11.075Y-7.625
X11.075Y-8.375
X11.425Y-8.375
X11.6125Y-5.375
X11.6125Y-6.125
X11.6125Y-6.875
X11.825Y-8.375
X12.0125Y-5.375
X12.0125Y-6.125
X12.0125Y-6.875
T3
X3.1865Y-8.1
X7.1235Y-8.1
X10.0312Y-5.1
X10.505Y-6.03
X10.505Y-6.97
X10.9688Y-5.1
T4
X0.375Y-5.375
X0.47Y-7.625
X0.47Y-8.375
X0.5619Y-6.125
X0.655Y-6.875
X1.125Y-5.375
X1.315Y-7.625
X1.405Y-8.375
X1.5Y-6.125
X1.685Y-6.875
X1.875Y-5.375
X2.065Y-7.625
X2.25Y-6.125
X2.34Y-8.375
X2.435Y-6.875
X2.625Y-5.375
X2.815Y-7.625
X3.0Y-6.125
X3.185Y-6.875
X3.1865Y-8.7
X3.375Y-5.375
X3.565Y-7.625
X3.75Y-6.125
X3.935Y-6.875
X4.125Y-5.375
X4.315Y-7.625
X4.5Y-6.125
X4.685Y-6.875
X4.875Y-5.375
X5.065Y-7.625
X5.155Y-8.375
X5.25Y-6.125
X5.435Y-6.875
X5.625Y-5.375
X5.815Y-7.625
X6.0Y-6.125
X6.185Y-6.875
X6.375Y-5.375
X6.565Y-7.625
X6.75Y-6.125
X6.935Y-6.875
X7.1235Y-8.7
X7.125Y-5.375
X7.315Y-7.625
X7.5Y-6.125
X7.685Y-6.875
X7.875Y-5.375
X7.97Y-8.375
X8.065Y-7.625
X8.25Y-6.125
X8.435Y-6.875
X8.625Y-5.375
X8.815Y-7.625
X9.0Y-6.125
X9.185Y-6.875
X9.375Y-5.375
X9.75Y-6.125
X9.935Y-6.875
X10.0312Y-5.7
X10.125Y-8.375
X10.5Y-5.375
X10.78Y-6.5
X10.875Y-7.625
X10.875Y-8.375
X10.9688Y-5.7
X11.105Y-6.03
X11.105Y-6.97
X11.625Y-8.375
X11.8125Y-5.375
X11.8125Y-6.125
X11.8125Y-6.875
T0
M30
