G04 #@! TF.GenerationSoftware,KiCad,Pcbnew,(5.1.9)-1*
G04 #@! TF.CreationDate,2021-03-26T16:48:03+01:00*
G04 #@! TF.ProjectId,rabbitholev1,72616262-6974-4686-9f6c-6576312e6b69,rev?*
G04 #@! TF.SameCoordinates,Original*
G04 #@! TF.FileFunction,Soldermask,Bot*
G04 #@! TF.FilePolarity,Negative*
%FSLAX46Y46*%
G04 Gerber Fmt 4.6, Leading zero omitted, Abs format (unit mm)*
G04 Created by KiCad (PCBNEW (5.1.9)-1) date 2021-03-26 16:48:03*
%MOMM*%
%LPD*%
G01*
G04 APERTURE LIST*
%ADD10C,2.200000*%
%ADD11C,1.752600*%
%ADD12R,1.752600X1.752600*%
%ADD13C,2.250000*%
%ADD14C,3.987800*%
%ADD15C,1.750000*%
%ADD16C,3.048000*%
%ADD17R,1.905000X1.905000*%
%ADD18C,1.905000*%
%ADD19R,1.200000X0.900000*%
G04 APERTURE END LIST*
D10*
G04 #@! TO.C,H4*
X307314600Y-220192600D03*
G04 #@! TD*
G04 #@! TO.C,H3*
X-3810000Y-220192600D03*
G04 #@! TD*
G04 #@! TO.C,H2*
X288137600Y-129540000D03*
G04 #@! TD*
G04 #@! TO.C,H1*
X-3810000Y-129540000D03*
G04 #@! TD*
D11*
G04 #@! TO.C,U1*
X-22275800Y-156834840D03*
X-19735800Y-156834840D03*
X-17195800Y-156834840D03*
X-14655800Y-156834840D03*
X-12115800Y-156834840D03*
X-9575800Y-128894840D03*
X-24587200Y-156834840D03*
X-9575800Y-131434840D03*
X-9575800Y-133974840D03*
X-9575800Y-136514840D03*
X-9575800Y-139054840D03*
X-9575800Y-141594840D03*
X-9575800Y-144134840D03*
X-9575800Y-146674840D03*
X-9575800Y-149214840D03*
X-9575800Y-151754840D03*
X-9575800Y-154294840D03*
X-9575800Y-156834840D03*
X-24815800Y-154294840D03*
X-24815800Y-151754840D03*
X-24815800Y-149214840D03*
X-24815800Y-146674840D03*
X-24815800Y-144134840D03*
X-24815800Y-141594840D03*
X-24815800Y-139054840D03*
X-24815800Y-136514840D03*
X-24815800Y-133974840D03*
X-24815800Y-131434840D03*
D12*
X-24815800Y-128894840D03*
G04 #@! TD*
D13*
G04 #@! TO.C,MX17*
X40640000Y-150495000D03*
D14*
X38100000Y-155575000D03*
D13*
X34290000Y-153035000D03*
D15*
X33020000Y-155575000D03*
X43180000Y-155575000D03*
G04 #@! TD*
D13*
G04 #@! TO.C,MX18*
X59690000Y-150495000D03*
D14*
X57150000Y-155575000D03*
D13*
X53340000Y-153035000D03*
D15*
X52070000Y-155575000D03*
X62230000Y-155575000D03*
G04 #@! TD*
D13*
G04 #@! TO.C,MX16*
X16811769Y-150495000D03*
D14*
X14271769Y-155575000D03*
D13*
X10461769Y-153035000D03*
D15*
X9191769Y-155575000D03*
X19351769Y-155575000D03*
G04 #@! TD*
D13*
G04 #@! TO.C,MX66*
X297815000Y-207645000D03*
D14*
X295275000Y-212725000D03*
D13*
X291465000Y-210185000D03*
D15*
X290195000Y-212725000D03*
X300355000Y-212725000D03*
G04 #@! TD*
D13*
G04 #@! TO.C,MX65*
X278765000Y-207645000D03*
D14*
X276225000Y-212725000D03*
D13*
X272415000Y-210185000D03*
D15*
X271145000Y-212725000D03*
X281305000Y-212725000D03*
G04 #@! TD*
D13*
G04 #@! TO.C,MX64*
X259715000Y-207645000D03*
D14*
X257175000Y-212725000D03*
D13*
X253365000Y-210185000D03*
D15*
X252095000Y-212725000D03*
X262255000Y-212725000D03*
G04 #@! TD*
D13*
G04 #@! TO.C,MX63*
X204978000Y-207645000D03*
D14*
X202438000Y-212725000D03*
D13*
X198628000Y-210185000D03*
D15*
X197358000Y-212725000D03*
X207518000Y-212725000D03*
G04 #@! TD*
D13*
G04 #@! TO.C,MX62*
X133477000Y-207645000D03*
D14*
X130937000Y-212725000D03*
D13*
X127127000Y-210185000D03*
D15*
X125857000Y-212725000D03*
X136017000Y-212725000D03*
D16*
X80937100Y-205740000D03*
X180936900Y-205740000D03*
D14*
X80937100Y-220980000D03*
X180936900Y-220980000D03*
G04 #@! TD*
D13*
G04 #@! TO.C,MX61*
X61976000Y-207645000D03*
D14*
X59436000Y-212725000D03*
D13*
X55626000Y-210185000D03*
D15*
X54356000Y-212725000D03*
X64516000Y-212725000D03*
G04 #@! TD*
D13*
G04 #@! TO.C,MX60*
X38227000Y-207645000D03*
D14*
X35687000Y-212725000D03*
D13*
X31877000Y-210185000D03*
D15*
X30607000Y-212725000D03*
X40767000Y-212725000D03*
G04 #@! TD*
D13*
G04 #@! TO.C,MX59*
X14478000Y-207645000D03*
D14*
X11938000Y-212725000D03*
D13*
X8128000Y-210185000D03*
D15*
X6858000Y-212725000D03*
X17018000Y-212725000D03*
G04 #@! TD*
D13*
G04 #@! TO.C,MX58*
X278765000Y-188595000D03*
D14*
X276225000Y-193675000D03*
D13*
X272415000Y-191135000D03*
D15*
X271145000Y-193675000D03*
X281305000Y-193675000D03*
G04 #@! TD*
D13*
G04 #@! TO.C,MX57*
X226441000Y-188595000D03*
D14*
X223901000Y-193675000D03*
D13*
X220091000Y-191135000D03*
D15*
X218821000Y-193675000D03*
X228981000Y-193675000D03*
G04 #@! TD*
D13*
G04 #@! TO.C,MX56*
X207391000Y-188595000D03*
D14*
X204851000Y-193675000D03*
D13*
X201041000Y-191135000D03*
D15*
X199771000Y-193675000D03*
X209931000Y-193675000D03*
G04 #@! TD*
D13*
G04 #@! TO.C,MX55*
X188341000Y-188595000D03*
D14*
X185801000Y-193675000D03*
D13*
X181991000Y-191135000D03*
D15*
X180721000Y-193675000D03*
X190881000Y-193675000D03*
G04 #@! TD*
D13*
G04 #@! TO.C,MX54*
X169291000Y-188595000D03*
D14*
X166751000Y-193675000D03*
D13*
X162941000Y-191135000D03*
D15*
X161671000Y-193675000D03*
X171831000Y-193675000D03*
G04 #@! TD*
D13*
G04 #@! TO.C,MX53*
X150241000Y-188595000D03*
D14*
X147701000Y-193675000D03*
D13*
X143891000Y-191135000D03*
D15*
X142621000Y-193675000D03*
X152781000Y-193675000D03*
G04 #@! TD*
D13*
G04 #@! TO.C,MX52*
X131191000Y-188595000D03*
D14*
X128651000Y-193675000D03*
D13*
X124841000Y-191135000D03*
D15*
X123571000Y-193675000D03*
X133731000Y-193675000D03*
G04 #@! TD*
D13*
G04 #@! TO.C,MX51*
X112141000Y-188595000D03*
D14*
X109601000Y-193675000D03*
D13*
X105791000Y-191135000D03*
D15*
X104521000Y-193675000D03*
X114681000Y-193675000D03*
G04 #@! TD*
D13*
G04 #@! TO.C,MX50*
X93091000Y-188595000D03*
D14*
X90551000Y-193675000D03*
D13*
X86741000Y-191135000D03*
D15*
X85471000Y-193675000D03*
X95631000Y-193675000D03*
G04 #@! TD*
D13*
G04 #@! TO.C,MX49*
X74041000Y-188595000D03*
D14*
X71501000Y-193675000D03*
D13*
X67691000Y-191135000D03*
D15*
X66421000Y-193675000D03*
X76581000Y-193675000D03*
G04 #@! TD*
D13*
G04 #@! TO.C,MX48*
X54991000Y-188595000D03*
D14*
X52451000Y-193675000D03*
D13*
X48641000Y-191135000D03*
D15*
X47371000Y-193675000D03*
X57531000Y-193675000D03*
G04 #@! TD*
D13*
G04 #@! TO.C,MX47*
X35941000Y-188595000D03*
D14*
X33401000Y-193675000D03*
D13*
X29591000Y-191135000D03*
D15*
X28321000Y-193675000D03*
X38481000Y-193675000D03*
G04 #@! TD*
D13*
G04 #@! TO.C,MX46*
X14478000Y-188595000D03*
D14*
X11938000Y-193675000D03*
D13*
X8128000Y-191135000D03*
D15*
X6858000Y-193675000D03*
X17018000Y-193675000D03*
G04 #@! TD*
D13*
G04 #@! TO.C,MX44*
X302577500Y-169545000D03*
D14*
X300037500Y-174625000D03*
D13*
X296227500Y-172085000D03*
D15*
X294957500Y-174625000D03*
X305117500Y-174625000D03*
G04 #@! TD*
D13*
G04 #@! TO.C,MX43*
X254889000Y-169545000D03*
D14*
X252349000Y-174625000D03*
D13*
X248539000Y-172085000D03*
D15*
X247269000Y-174625000D03*
X257429000Y-174625000D03*
G04 #@! TD*
D13*
G04 #@! TO.C,MX42*
X235839000Y-169545000D03*
D14*
X233299000Y-174625000D03*
D13*
X229489000Y-172085000D03*
D15*
X228219000Y-174625000D03*
X238379000Y-174625000D03*
G04 #@! TD*
D13*
G04 #@! TO.C,MX41*
X216789000Y-169545000D03*
D14*
X214249000Y-174625000D03*
D13*
X210439000Y-172085000D03*
D15*
X209169000Y-174625000D03*
X219329000Y-174625000D03*
G04 #@! TD*
D13*
G04 #@! TO.C,MX40*
X197739000Y-169545000D03*
D14*
X195199000Y-174625000D03*
D13*
X191389000Y-172085000D03*
D15*
X190119000Y-174625000D03*
X200279000Y-174625000D03*
G04 #@! TD*
D13*
G04 #@! TO.C,MX39*
X178689000Y-169545000D03*
D14*
X176149000Y-174625000D03*
D13*
X172339000Y-172085000D03*
D15*
X171069000Y-174625000D03*
X181229000Y-174625000D03*
G04 #@! TD*
D13*
G04 #@! TO.C,MX38*
X159639000Y-169545000D03*
D14*
X157099000Y-174625000D03*
D13*
X153289000Y-172085000D03*
D15*
X152019000Y-174625000D03*
X162179000Y-174625000D03*
G04 #@! TD*
D13*
G04 #@! TO.C,MX37*
X140589000Y-169545000D03*
D14*
X138049000Y-174625000D03*
D13*
X134239000Y-172085000D03*
D15*
X132969000Y-174625000D03*
X143129000Y-174625000D03*
G04 #@! TD*
D13*
G04 #@! TO.C,MX36*
X121539000Y-169545000D03*
D14*
X118999000Y-174625000D03*
D13*
X115189000Y-172085000D03*
D15*
X113919000Y-174625000D03*
X124079000Y-174625000D03*
G04 #@! TD*
D13*
G04 #@! TO.C,MX35*
X102489000Y-169545000D03*
D14*
X99949000Y-174625000D03*
D13*
X96139000Y-172085000D03*
D15*
X94869000Y-174625000D03*
X105029000Y-174625000D03*
G04 #@! TD*
D13*
G04 #@! TO.C,MX34*
X83439000Y-169545000D03*
D14*
X80899000Y-174625000D03*
D13*
X77089000Y-172085000D03*
D15*
X75819000Y-174625000D03*
X85979000Y-174625000D03*
G04 #@! TD*
D13*
G04 #@! TO.C,MX33*
X64389000Y-169545000D03*
D14*
X61849000Y-174625000D03*
D13*
X58039000Y-172085000D03*
D15*
X56769000Y-174625000D03*
X66929000Y-174625000D03*
G04 #@! TD*
D13*
G04 #@! TO.C,MX32*
X45339000Y-169545000D03*
D14*
X42799000Y-174625000D03*
D13*
X38989000Y-172085000D03*
D15*
X37719000Y-174625000D03*
X47879000Y-174625000D03*
G04 #@! TD*
D13*
G04 #@! TO.C,MX31*
X19177000Y-169545000D03*
D14*
X16637000Y-174625000D03*
D13*
X12827000Y-172085000D03*
D15*
X11557000Y-174625000D03*
X21717000Y-174625000D03*
G04 #@! TD*
D13*
G04 #@! TO.C,MX30*
X302577500Y-150495000D03*
D14*
X300037500Y-155575000D03*
D13*
X296227500Y-153035000D03*
D15*
X294957500Y-155575000D03*
X305117500Y-155575000D03*
G04 #@! TD*
D13*
G04 #@! TO.C,MX28*
X250190000Y-150495000D03*
D14*
X247650000Y-155575000D03*
D13*
X243840000Y-153035000D03*
D15*
X242570000Y-155575000D03*
X252730000Y-155575000D03*
G04 #@! TD*
D13*
G04 #@! TO.C,MX27*
X231140000Y-150495000D03*
D14*
X228600000Y-155575000D03*
D13*
X224790000Y-153035000D03*
D15*
X223520000Y-155575000D03*
X233680000Y-155575000D03*
G04 #@! TD*
D13*
G04 #@! TO.C,MX26*
X212090000Y-150495000D03*
D14*
X209550000Y-155575000D03*
D13*
X205740000Y-153035000D03*
D15*
X204470000Y-155575000D03*
X214630000Y-155575000D03*
G04 #@! TD*
D13*
G04 #@! TO.C,MX25*
X193040000Y-150495000D03*
D14*
X190500000Y-155575000D03*
D13*
X186690000Y-153035000D03*
D15*
X185420000Y-155575000D03*
X195580000Y-155575000D03*
G04 #@! TD*
D13*
G04 #@! TO.C,MX24*
X173990000Y-150495000D03*
D14*
X171450000Y-155575000D03*
D13*
X167640000Y-153035000D03*
D15*
X166370000Y-155575000D03*
X176530000Y-155575000D03*
G04 #@! TD*
D13*
G04 #@! TO.C,MX23*
X154940000Y-150495000D03*
D14*
X152400000Y-155575000D03*
D13*
X148590000Y-153035000D03*
D15*
X147320000Y-155575000D03*
X157480000Y-155575000D03*
G04 #@! TD*
D13*
G04 #@! TO.C,MX22*
X135890000Y-150495000D03*
D14*
X133350000Y-155575000D03*
D13*
X129540000Y-153035000D03*
D15*
X128270000Y-155575000D03*
X138430000Y-155575000D03*
G04 #@! TD*
D13*
G04 #@! TO.C,MX21*
X116840000Y-150495000D03*
D14*
X114300000Y-155575000D03*
D13*
X110490000Y-153035000D03*
D15*
X109220000Y-155575000D03*
X119380000Y-155575000D03*
G04 #@! TD*
D13*
G04 #@! TO.C,MX20*
X97790000Y-150495000D03*
D14*
X95250000Y-155575000D03*
D13*
X91440000Y-153035000D03*
D15*
X90170000Y-155575000D03*
X100330000Y-155575000D03*
G04 #@! TD*
D13*
G04 #@! TO.C,MX19*
X78740000Y-150495000D03*
D14*
X76200000Y-155575000D03*
D13*
X72390000Y-153035000D03*
D15*
X71120000Y-155575000D03*
X81280000Y-155575000D03*
G04 #@! TD*
D13*
G04 #@! TO.C,MX15*
X302577500Y-131445000D03*
D14*
X300037500Y-136525000D03*
D13*
X296227500Y-133985000D03*
D15*
X294957500Y-136525000D03*
X305117500Y-136525000D03*
G04 #@! TD*
D13*
G04 #@! TO.C,MX14*
X269240000Y-131445000D03*
D14*
X266700000Y-136525000D03*
D13*
X262890000Y-133985000D03*
D15*
X261620000Y-136525000D03*
X271780000Y-136525000D03*
D16*
X254793750Y-129540000D03*
X278606250Y-129540000D03*
D14*
X254793750Y-144780000D03*
X278606250Y-144780000D03*
G04 #@! TD*
D13*
G04 #@! TO.C,MX13*
X240665000Y-131445000D03*
D14*
X238125000Y-136525000D03*
D13*
X234315000Y-133985000D03*
D15*
X233045000Y-136525000D03*
X243205000Y-136525000D03*
G04 #@! TD*
D13*
G04 #@! TO.C,MX12*
X221615000Y-131445000D03*
D14*
X219075000Y-136525000D03*
D13*
X215265000Y-133985000D03*
D15*
X213995000Y-136525000D03*
X224155000Y-136525000D03*
G04 #@! TD*
D13*
G04 #@! TO.C,MX11*
X202565000Y-131445000D03*
D14*
X200025000Y-136525000D03*
D13*
X196215000Y-133985000D03*
D15*
X194945000Y-136525000D03*
X205105000Y-136525000D03*
G04 #@! TD*
D13*
G04 #@! TO.C,MX10*
X183515000Y-131445000D03*
D14*
X180975000Y-136525000D03*
D13*
X177165000Y-133985000D03*
D15*
X175895000Y-136525000D03*
X186055000Y-136525000D03*
G04 #@! TD*
D13*
G04 #@! TO.C,MX9*
X164465000Y-131445000D03*
D14*
X161925000Y-136525000D03*
D13*
X158115000Y-133985000D03*
D15*
X156845000Y-136525000D03*
X167005000Y-136525000D03*
G04 #@! TD*
D13*
G04 #@! TO.C,MX8*
X145415000Y-131445000D03*
D14*
X142875000Y-136525000D03*
D13*
X139065000Y-133985000D03*
D15*
X137795000Y-136525000D03*
X147955000Y-136525000D03*
G04 #@! TD*
D13*
G04 #@! TO.C,MX7*
X126365000Y-131445000D03*
D14*
X123825000Y-136525000D03*
D13*
X120015000Y-133985000D03*
D15*
X118745000Y-136525000D03*
X128905000Y-136525000D03*
G04 #@! TD*
D13*
G04 #@! TO.C,MX6*
X107315000Y-131445000D03*
D14*
X104775000Y-136525000D03*
D13*
X100965000Y-133985000D03*
D15*
X99695000Y-136525000D03*
X109855000Y-136525000D03*
G04 #@! TD*
D13*
G04 #@! TO.C,MX5*
X88265000Y-131445000D03*
D14*
X85725000Y-136525000D03*
D13*
X81915000Y-133985000D03*
D15*
X80645000Y-136525000D03*
X90805000Y-136525000D03*
G04 #@! TD*
D13*
G04 #@! TO.C,MX4*
X69215000Y-131445000D03*
D14*
X66675000Y-136525000D03*
D13*
X62865000Y-133985000D03*
D15*
X61595000Y-136525000D03*
X71755000Y-136525000D03*
G04 #@! TD*
D13*
G04 #@! TO.C,MX3*
X50165000Y-131445000D03*
D14*
X47625000Y-136525000D03*
D13*
X43815000Y-133985000D03*
D15*
X42545000Y-136525000D03*
X52705000Y-136525000D03*
G04 #@! TD*
D13*
G04 #@! TO.C,MX2*
X31115000Y-131445000D03*
D14*
X28575000Y-136525000D03*
D13*
X24765000Y-133985000D03*
D15*
X23495000Y-136525000D03*
X33655000Y-136525000D03*
G04 #@! TD*
D13*
G04 #@! TO.C,MX1*
X12065000Y-131445000D03*
D14*
X9525000Y-136525000D03*
D13*
X5715000Y-133985000D03*
D15*
X4445000Y-136525000D03*
X14605000Y-136525000D03*
G04 #@! TD*
D14*
G04 #@! TO.C,MX29*
X282067000Y-153162000D03*
X282067000Y-177038000D03*
D16*
X266827000Y-153162000D03*
X266827000Y-177038000D03*
D15*
X278892000Y-165100000D03*
X268732000Y-165100000D03*
D17*
X275082000Y-170180000D03*
D18*
X272542000Y-170180000D03*
D13*
X270002000Y-162560000D03*
D14*
X273812000Y-165100000D03*
D13*
X276352000Y-160020000D03*
G04 #@! TD*
D19*
G04 #@! TO.C,D66*
X303403000Y-210821000D03*
X303403000Y-214121000D03*
G04 #@! TD*
G04 #@! TO.C,D65*
X284353000Y-210821000D03*
X284353000Y-214121000D03*
G04 #@! TD*
G04 #@! TO.C,D64*
X265303000Y-210821000D03*
X265303000Y-214121000D03*
G04 #@! TD*
G04 #@! TO.C,D63*
X210693000Y-210821000D03*
X210693000Y-214121000D03*
G04 #@! TD*
G04 #@! TO.C,D62*
X139192000Y-210821000D03*
X139192000Y-214121000D03*
G04 #@! TD*
G04 #@! TO.C,D61*
X67691000Y-210822000D03*
X67691000Y-214122000D03*
G04 #@! TD*
G04 #@! TO.C,D60*
X44069000Y-210821000D03*
X44069000Y-214121000D03*
G04 #@! TD*
G04 #@! TO.C,D59*
X20447000Y-210821000D03*
X20447000Y-214121000D03*
G04 #@! TD*
G04 #@! TO.C,D58*
X284480000Y-191771000D03*
X284480000Y-195071000D03*
G04 #@! TD*
G04 #@! TO.C,D57*
X232156000Y-191771000D03*
X232156000Y-195071000D03*
G04 #@! TD*
G04 #@! TO.C,D56*
X213106000Y-191771000D03*
X213106000Y-195071000D03*
G04 #@! TD*
G04 #@! TO.C,D55*
X194183000Y-191771000D03*
X194183000Y-195071000D03*
G04 #@! TD*
G04 #@! TO.C,D54*
X175006000Y-191771000D03*
X175006000Y-195071000D03*
G04 #@! TD*
G04 #@! TO.C,D53*
X156083000Y-191771000D03*
X156083000Y-195071000D03*
G04 #@! TD*
G04 #@! TO.C,D52*
X136906000Y-191771000D03*
X136906000Y-195071000D03*
G04 #@! TD*
G04 #@! TO.C,D51*
X117856000Y-191771000D03*
X117856000Y-195071000D03*
G04 #@! TD*
G04 #@! TO.C,D50*
X98806000Y-191771000D03*
X98806000Y-195071000D03*
G04 #@! TD*
G04 #@! TO.C,D49*
X79756000Y-191771000D03*
X79756000Y-195071000D03*
G04 #@! TD*
G04 #@! TO.C,D48*
X60706000Y-191771000D03*
X60706000Y-195071000D03*
G04 #@! TD*
G04 #@! TO.C,D47*
X41656000Y-191771000D03*
X41656000Y-195071000D03*
G04 #@! TD*
G04 #@! TO.C,D46*
X20320000Y-191771000D03*
X20320000Y-195071000D03*
G04 #@! TD*
G04 #@! TO.C,D44*
X308102000Y-172721000D03*
X308102000Y-176021000D03*
G04 #@! TD*
G04 #@! TO.C,D43*
X260477000Y-172721000D03*
X260477000Y-176021000D03*
G04 #@! TD*
G04 #@! TO.C,D42*
X241427000Y-172721000D03*
X241427000Y-176021000D03*
G04 #@! TD*
G04 #@! TO.C,D41*
X222377000Y-172721000D03*
X222377000Y-176021000D03*
G04 #@! TD*
G04 #@! TO.C,D40*
X203327000Y-172721000D03*
X203327000Y-176021000D03*
G04 #@! TD*
G04 #@! TO.C,D39*
X184277000Y-172721000D03*
X184277000Y-176021000D03*
G04 #@! TD*
G04 #@! TO.C,D38*
X165227000Y-172721000D03*
X165227000Y-176021000D03*
G04 #@! TD*
G04 #@! TO.C,D37*
X146177000Y-172721000D03*
X146177000Y-176021000D03*
G04 #@! TD*
G04 #@! TO.C,D36*
X127127000Y-172721000D03*
X127127000Y-176021000D03*
G04 #@! TD*
G04 #@! TO.C,D35*
X108077000Y-172721000D03*
X108077000Y-176021000D03*
G04 #@! TD*
G04 #@! TO.C,D34*
X89154000Y-172721000D03*
X89154000Y-176021000D03*
G04 #@! TD*
G04 #@! TO.C,D33*
X69977000Y-172721000D03*
X69977000Y-176021000D03*
G04 #@! TD*
G04 #@! TO.C,D32*
X50800000Y-172721000D03*
X50800000Y-176021000D03*
G04 #@! TD*
G04 #@! TO.C,D31*
X25019000Y-172721000D03*
X25019000Y-176021000D03*
G04 #@! TD*
G04 #@! TO.C,D30*
X308102000Y-153671000D03*
X308102000Y-156971000D03*
G04 #@! TD*
G04 #@! TO.C,D29*
X282448000Y-163704000D03*
X282448000Y-167004000D03*
G04 #@! TD*
G04 #@! TO.C,D28*
X255778000Y-153671000D03*
X255778000Y-156971000D03*
G04 #@! TD*
G04 #@! TO.C,D27*
X236728000Y-153671000D03*
X236728000Y-156971000D03*
G04 #@! TD*
G04 #@! TO.C,D26*
X217678000Y-153671000D03*
X217678000Y-156971000D03*
G04 #@! TD*
G04 #@! TO.C,D25*
X198755000Y-153671000D03*
X198755000Y-156971000D03*
G04 #@! TD*
G04 #@! TO.C,D24*
X179705000Y-153798000D03*
X179705000Y-157098000D03*
G04 #@! TD*
G04 #@! TO.C,D23*
X160782000Y-153671000D03*
X160782000Y-156971000D03*
G04 #@! TD*
G04 #@! TO.C,D22*
X141478000Y-153671000D03*
X141478000Y-156971000D03*
G04 #@! TD*
G04 #@! TO.C,D21*
X122428000Y-153671000D03*
X122428000Y-156971000D03*
G04 #@! TD*
G04 #@! TO.C,D20*
X103505000Y-153671000D03*
X103505000Y-156971000D03*
G04 #@! TD*
G04 #@! TO.C,D19*
X84455000Y-153671000D03*
X84455000Y-156971000D03*
G04 #@! TD*
G04 #@! TO.C,D18*
X65405000Y-153671000D03*
X65405000Y-156971000D03*
G04 #@! TD*
G04 #@! TO.C,D17*
X46355000Y-153671000D03*
X46355000Y-156971000D03*
G04 #@! TD*
G04 #@! TO.C,D16*
X22733000Y-153671000D03*
X22733000Y-156971000D03*
G04 #@! TD*
G04 #@! TO.C,D15*
X308229000Y-134621000D03*
X308229000Y-137921000D03*
G04 #@! TD*
G04 #@! TO.C,D14*
X275209000Y-134621000D03*
X275209000Y-137921000D03*
G04 #@! TD*
G04 #@! TO.C,D13*
X246253000Y-134621000D03*
X246253000Y-137921000D03*
G04 #@! TD*
G04 #@! TO.C,D12*
X227330000Y-134621000D03*
X227330000Y-137921000D03*
G04 #@! TD*
G04 #@! TO.C,D11*
X208153000Y-134621000D03*
X208153000Y-137921000D03*
G04 #@! TD*
G04 #@! TO.C,D10*
X189103000Y-134621000D03*
X189103000Y-137921000D03*
G04 #@! TD*
G04 #@! TO.C,D9*
X170053000Y-134621000D03*
X170053000Y-137921000D03*
G04 #@! TD*
G04 #@! TO.C,D8*
X151130000Y-134621000D03*
X151130000Y-137921000D03*
G04 #@! TD*
G04 #@! TO.C,D7*
X131953000Y-134621000D03*
X131953000Y-137921000D03*
G04 #@! TD*
G04 #@! TO.C,D6*
X113030000Y-134621000D03*
X113030000Y-137921000D03*
G04 #@! TD*
G04 #@! TO.C,D5*
X93980000Y-134621000D03*
X93980000Y-137921000D03*
G04 #@! TD*
G04 #@! TO.C,D4*
X74803000Y-134621000D03*
X74803000Y-137921000D03*
G04 #@! TD*
G04 #@! TO.C,D3*
X55880000Y-134621000D03*
X55880000Y-137921000D03*
G04 #@! TD*
G04 #@! TO.C,D2*
X36830000Y-134621000D03*
X36830000Y-137921000D03*
G04 #@! TD*
G04 #@! TO.C,D1*
X17653000Y-134748000D03*
X17653000Y-138048000D03*
G04 #@! TD*
M02*
