M48
; DRILL file {KiCad (5.1.9)-1} date 03/26/21 16:48:08
; FORMAT={-:-/ absolute / inch / decimal}
; #@! TF.CreationDate,2021-03-26T16:48:08+01:00
; #@! TF.GenerationSoftware,Kicad,Pcbnew,(5.1.9)-1
; #@! TF.FileFunction,Plated,1,2,PTH
FMAT,2
INCH
T1C0.0157
T2C0.0409
T3C0.0430
T4C0.0579
%
G90
G05
T1
X0.4454Y-6.245
X1.3982Y-6.245
X2.1558Y-6.245
X2.93Y-6.2492
X3.6408Y-6.245
X4.4068Y-6.245
X5.1818Y-6.245
X5.9186Y-6.245
X6.6782Y-6.2482
X7.4252Y-6.2526
X8.181Y-6.245
X8.9334Y-6.25
X9.682Y-6.2462
X10.4324Y-6.2
T2
X10.73Y-6.7
X10.83Y-6.7
T3
X-0.977Y-5.0746
X-0.977Y-5.1746
X-0.977Y-5.2746
X-0.977Y-5.3746
X-0.977Y-5.4746
X-0.977Y-5.5746
X-0.977Y-5.6746
X-0.977Y-5.7746
X-0.977Y-5.8746
X-0.977Y-5.9746
X-0.977Y-6.0746
X-0.968Y-6.1746
X-0.877Y-6.1746
X-0.777Y-6.1746
X-0.677Y-6.1746
X-0.577Y-6.1746
X-0.477Y-6.1746
X-0.377Y-5.0746
X-0.377Y-5.1746
X-0.377Y-5.2746
X-0.377Y-5.3746
X-0.377Y-5.4746
X-0.377Y-5.5746
X-0.377Y-5.6746
X-0.377Y-5.7746
X-0.377Y-5.8746
X-0.377Y-5.9746
X-0.377Y-6.0746
X-0.377Y-6.1746
T4
X0.225Y-5.275
X0.32Y-7.525
X0.32Y-8.275
X0.4119Y-6.025
X0.475Y-5.175
X0.505Y-6.775
X0.57Y-7.425
X0.57Y-8.175
X0.6619Y-5.925
X0.755Y-6.675
X0.975Y-5.275
X1.165Y-7.525
X1.225Y-5.175
X1.255Y-8.275
X1.35Y-6.025
X1.415Y-7.425
X1.505Y-8.175
X1.535Y-6.775
X1.6Y-5.925
X1.725Y-5.275
X1.785Y-6.675
X1.915Y-7.525
X1.975Y-5.175
X2.1Y-6.025
X2.165Y-7.425
X2.19Y-8.275
X2.285Y-6.775
X2.35Y-5.925
X2.44Y-8.175
X2.475Y-5.275
X2.535Y-6.675
X2.665Y-7.525
X2.725Y-5.175
X2.85Y-6.025
X2.915Y-7.425
X3.035Y-6.775
X3.1Y-5.925
X3.225Y-5.275
X3.285Y-6.675
X3.415Y-7.525
X3.475Y-5.175
X3.6Y-6.025
X3.665Y-7.425
X3.785Y-6.775
X3.85Y-5.925
X3.975Y-5.275
X4.035Y-6.675
X4.165Y-7.525
X4.225Y-5.175
X4.35Y-6.025
X4.415Y-7.425
X4.535Y-6.775
X4.6Y-5.925
X4.725Y-5.275
X4.785Y-6.675
X4.915Y-7.525
X4.975Y-5.175
X5.005Y-8.275
X5.1Y-6.025
X5.165Y-7.425
X5.255Y-8.175
X5.285Y-6.775
X5.35Y-5.925
X5.475Y-5.275
X5.535Y-6.675
X5.665Y-7.525
X5.725Y-5.175
X5.85Y-6.025
X5.915Y-7.425
X6.035Y-6.775
X6.1Y-5.925
X6.225Y-5.275
X6.285Y-6.675
X6.415Y-7.525
X6.475Y-5.175
X6.6Y-6.025
X6.665Y-7.425
X6.785Y-6.775
X6.85Y-5.925
X6.975Y-5.275
X7.035Y-6.675
X7.165Y-7.525
X7.225Y-5.175
X7.35Y-6.025
X7.415Y-7.425
X7.535Y-6.775
X7.6Y-5.925
X7.725Y-5.275
X7.785Y-6.675
X7.82Y-8.275
X7.915Y-7.525
X7.975Y-5.175
X8.07Y-8.175
X8.1Y-6.025
X8.165Y-7.425
X8.285Y-6.775
X8.35Y-5.925
X8.475Y-5.275
X8.535Y-6.675
X8.665Y-7.525
X8.725Y-5.175
X8.85Y-6.025
X8.915Y-7.425
X9.035Y-6.775
X9.1Y-5.925
X9.225Y-5.275
X9.285Y-6.675
X9.475Y-5.175
X9.6Y-6.025
X9.785Y-6.775
X9.85Y-5.925
X9.975Y-8.275
X10.035Y-6.675
X10.225Y-8.175
X10.35Y-5.275
X10.6Y-5.175
X10.63Y-6.4
X10.725Y-7.525
X10.725Y-8.275
X10.88Y-6.3
X10.975Y-7.425
X10.975Y-8.175
X11.475Y-8.275
X11.6625Y-5.275
X11.6625Y-6.025
X11.6625Y-6.775
X11.725Y-8.175
X11.9125Y-5.175
X11.9125Y-5.925
X11.9125Y-6.675
T0
M30
